0
SECTION
2
HEADER
9
$INSUNITS
70
4
9
$ACADVER
1
AC1014
9
$HANDSEED
5
FFFF
0
ENDSEC
0
SECTION
2
TABLES
0
TABLE
2
VPORT
5
8
100
AcDbSymbolTable
0
ENDTAB
0
TABLE
2
LTYPE
5
5
100
AcDbSymbolTable
0
LTYPE
5
14
100
AcDbSymbolTableRecord
100
AcDbLinetypeTableRecord
2
BYBLOCK
70
0
0
LTYPE
5
15
100
AcDbSymbolTableRecord
100
AcDbLinetypeTableRecord
2
BYLAYER
70
0
0
ENDTAB
0
TABLE
2
LAYER
5
2
100
AcDbSymbolTable
70
2
0
LAYER
5
50
100
AcDbSymbolTableRecord
100
AcDbLayerTableRecord
2
0
70
0
6
CONTINUOUS
0
ENDTAB
0
TABLE
2
STYLE
5
3
100
AcDbSymbolTable
70
1
0
STYLE
5
11
100
AcDbSymbolTableRecord
100
AcDbTextStyleTableRecord
2
STANDARD
70
0
0
ENDTAB
0
TABLE
2
VIEW
5
6
100
AcDbSymbolTable
70
0
0
ENDTAB
0
TABLE
2
UCS
5
7
100
AcDbSymbolTable
70
0
0
ENDTAB
0
TABLE
2
APPID
5
9
100
AcDbSymbolTable
70
2
0
APPID
5
12
100
AcDbSymbolTableRecord
100
AcDbRegAppTableRecord
2
ACAD
70
0
0
ENDTAB
0
TABLE
2
DIMSTYLE
5
A
100
AcDbSymbolTable
70
1
0
ENDTAB
0
TABLE
2
BLOCK_RECORD
5
1
100
AcDbSymbolTable
70
1
0
BLOCK_RECORD
5
1F
100
AcDbSymbolTableRecord
100
AcDbBlockTableRecord
2
*MODEL_SPACE
0
BLOCK_RECORD
5
1B
100
AcDbSymbolTableRecord
100
AcDbBlockTableRecord
2
*PAPER_SPACE
0
ENDTAB
0
ENDSEC
0
SECTION
2
BLOCKS
0
BLOCK
5
20
100
AcDbEntity
100
AcDbBlockBegin
2
*MODEL_SPACE
0
ENDBLK
5
21
100
AcDbEntity
100
AcDbBlockEnd
0
BLOCK
5
1C
100
AcDbEntity
100
AcDbBlockBegin
2
*PAPER_SPACE
0
ENDBLK
5
1D
100
AcDbEntity
100
AcDbBlockEnd
0
ENDSEC
0
SECTION
2
ENTITIES
0
LINE
5
100
100
AcDbEntity
8
0
100
AcDbLine
10
289
20
-642.73357899999996
30
0
11
375.00000000000006
21
-642.73357899999996
31
0
0
LINE
5
101
100
AcDbEntity
8
0
100
AcDbLine
10
375.00000000000006
20
-656.73357899999996
30
0
11
289
21
-656.73357899999996
31
0
0
ARC
5
102
100
AcDbEntity
8
0
100
AcDbCircle
10
289
20
-649.73357899999996
30
0
40
7.0000000000000284
210
0
220
-0
230
1
100
AcDbArc
50
90
51
270
0
ARC
5
103
100
AcDbEntity
8
0
100
AcDbCircle
10
375.00000000000006
20
-649.73357899999996
30
0
40
7.0000000000000284
210
0
220
0
230
1
100
AcDbArc
50
-90
51
90
0
LINE
5
104
100
AcDbEntity
8
0
100
AcDbLine
10
289
20
-642.73357899999996
30
0
11
289
21
-656.73357899999996
31
0
0
LINE
5
105
100
AcDbEntity
8
0
100
AcDbLine
10
375.00000000000006
20
-642.73357899999996
30
0
11
375.00000000000006
21
-656.73357899999996
31
0
0
LINE
5
106
100
AcDbEntity
8
0
100
AcDbLine
10
375.00000000000006
20
-642.73357899999996
30
0
11
386.92171058389613
21
-626.48657676891366
31
0
0
LINE
5
107
100
AcDbEntity
8
0
100
AcDbLine
10
386.92171058389613
20
-626.48657676891366
30
0
11
386.92171058389613
21
-642.67006307487532
31
0
0
LINE
5
108
100
AcDbEntity
8
0
100
AcDbLine
10
386.92171058389613
20
-642.67006307487532
30
0
11
386.92171058389613
21
-656.67006328349157
31
0
0
LINE
5
109
100
AcDbEntity
8
0
100
AcDbLine
10
386.92171058389613
20
-656.67006328349157
30
0
11
386.92171058389613
21
-672.8535492834917
31
0
0
LINE
5
110
100
AcDbEntity
8
0
100
AcDbLine
10
375.00000000000006
20
-656.73357899999996
30
0
11
386.92171058389613
21
-672.8535492834917
31
0
0
LINE
5
111
100
AcDbEntity
8
0
100
AcDbLine
10
386.92171058389613
20
-642.67006307487532
30
0
11
386.92171058389613
21
-656.67006328349157
31
0
0
LINE
5
112
100
AcDbEntity
8
0
100
AcDbLine
10
375.00000000000006
20
-642.73357899999996
30
0
11
375.00000000000006
21
-656.73357899999996
31
0
0
LINE
5
113
100
AcDbEntity
8
0
100
AcDbLine
10
375.00000000000006
20
-642.73357899999996
30
0
11
386.92171058389613
21
-626.48657676891366
31
0
0
LINE
5
114
100
AcDbEntity
8
0
100
AcDbLine
10
375.00000000000006
20
-656.73357899999996
30
0
11
386.92171058389613
21
-672.8535492834917
31
0
0
LINE
5
115
100
AcDbEntity
8
0
100
AcDbLine
10
386.92171058389613
20
-656.67006328349157
30
0
11
386.92171058389613
21
-672.8535492834917
31
0
0
LINE
5
116
100
AcDbEntity
8
0
100
AcDbLine
10
386.92171058389613
20
-626.48657676891366
30
0
11
386.92171058389613
21
-642.67006307487532
31
0
0
ARC
5
117
100
AcDbEntity
8
0
100
AcDbCircle
10
375.00000000000006
20
-649.73357899999996
30
0
40
7.0000000000000284
210
0
220
0
230
1
100
AcDbArc
50
-90
51
90
0
LINE
5
118
100
AcDbEntity
8
0
100
AcDbLine
10
375.00000000000006
20
-642.73357899999996
30
0
11
386.92171058389613
21
-642.73357899999996
31
0
0
LINE
5
119
100
AcDbEntity
8
0
100
AcDbLine
10
289
20
-642.73357899999996
30
0
11
277.07828900000004
21
-642.73357899999996
31
0
0
LINE
5
120
100
AcDbEntity
8
0
100
AcDbLine
10
277.07828900000004
20
-642.73357899999996
30
0
11
277.07828900000004
21
-626.55009299999995
31
0
0
LINE
5
121
100
AcDbEntity
8
0
100
AcDbLine
10
277.07828900000004
20
-626.55009299999995
30
0
11
289
21
-642.73357899999996
31
0
0
LINE
5
122
100
AcDbEntity
8
0
100
AcDbLine
10
289
20
-656.73357899999996
30
0
11
277.07828900000004
21
-656.73357899999996
31
0
0
LINE
5
123
100
AcDbEntity
8
0
100
AcDbLine
10
277.07828900000004
20
-656.73357899999996
30
0
11
277.07828900000004
21
-672.91706500000009
31
0
0
LINE
5
124
100
AcDbEntity
8
0
100
AcDbLine
10
289
20
-656.73357899999996
30
0
11
277.07828900000004
21
-672.91706500000009
31
0
0
CIRCLE
5
125
100
AcDbEntity
8
0
100
AcDbCircle
10
277.07828900000004
20
-626.55009299999995
30
0
40
2.6500000000000057
210
0
220
0
230
1
0
CIRCLE
5
126
100
AcDbEntity
8
0
100
AcDbCircle
10
277.07828900000004
20
-672.91706500000009
30
0
40
2.6500000000000057
210
0
220
0
230
1
0
CIRCLE
5
127
100
AcDbEntity
8
0
100
AcDbCircle
10
386.92171058389613
20
-626.48657676891366
30
0
40
2.6500000000000021
210
0
220
0
230
1
0
CIRCLE
5
128
100
AcDbEntity
8
0
100
AcDbCircle
10
386.92171058389613
20
-672.8535492834917
30
0
40
2.6500000000000057
210
0
220
0
230
1
0
LINE
5
129
100
AcDbEntity
8
0
100
AcDbLine
10
299.07828900000175
20
-611.60969300000056
30
0
11
277.07828900000004
21
-626.55009299999995
31
0
0
CIRCLE
5
130
100
AcDbEntity
8
0
100
AcDbCircle
10
299.07828900000175
20
-611.60969300000056
30
0
40
2.6499999999999928
210
0
220
0
230
1
0
LINE
5
131
100
AcDbEntity
8
0
100
AcDbLine
10
299.07828900000175
20
-611.60969300000056
30
0
11
321.0782890000018
21
-611.60969300000056
31
0
0
LINE
5
132
100
AcDbEntity
8
0
100
AcDbLine
10
321.0782890000018
20
-611.60969300000056
30
0
11
343.0782890000018
21
-611.60969300000056
31
0
0
LINE
5
133
100
AcDbEntity
8
0
100
AcDbLine
10
343.0782890000018
20
-611.60969300000056
30
0
11
365.07828900000169
21
-611.60969300000056
31
0
0
LINE
5
134
100
AcDbEntity
8
0
100
AcDbLine
10
364.92171058389437
20
-687.79394928349097
30
0
11
386.92171058389613
21
-672.8535492834917
31
0
0
LINE
5
135
100
AcDbEntity
8
0
100
AcDbLine
10
364.92171058389437
20
-687.79394928349097
30
0
11
342.92171058389448
21
-687.79394928349097
31
0
0
LINE
5
136
100
AcDbEntity
8
0
100
AcDbLine
10
342.92171058389448
20
-687.79394928349097
30
0
11
320.92171058389448
21
-687.79394928349097
31
0
0
LINE
5
137
100
AcDbEntity
8
0
100
AcDbLine
10
320.92171058389448
20
-687.79394928349097
30
0
11
298.92171058389442
21
-687.79394928349097
31
0
0
CIRCLE
5
138
100
AcDbEntity
8
0
100
AcDbCircle
10
321.0782890000018
20
-611.60969300000056
30
0
40
2.6500000000000008
210
0
220
0
230
1
0
CIRCLE
5
139
100
AcDbEntity
8
0
100
AcDbCircle
10
343.0782890000018
20
-611.60969300000056
30
0
40
2.6500000000000057
210
0
220
0
230
1
0
CIRCLE
5
140
100
AcDbEntity
8
0
100
AcDbCircle
10
365.07828900000169
20
-611.60969300000056
30
0
40
2.6500000000000057
210
0
220
0
230
1
0
CIRCLE
5
141
100
AcDbEntity
8
0
100
AcDbCircle
10
364.92171058389437
20
-687.79394928349097
30
0
40
2.6500000000000075
210
0
220
0
230
1
0
CIRCLE
5
142
100
AcDbEntity
8
0
100
AcDbCircle
10
342.92171058389448
20
-687.79394928349097
30
0
40
2.6499999999999968
210
0
220
0
230
1
0
CIRCLE
5
143
100
AcDbEntity
8
0
100
AcDbCircle
10
320.92171058389448
20
-687.79394928349097
30
0
40
2.6500000000000057
210
0
220
0
230
1
0
CIRCLE
5
144
100
AcDbEntity
8
0
100
AcDbCircle
10
298.92171058389442
20
-687.79394928349097
30
0
40
2.6500000000000057
210
0
220
0
230
1
0
LINE
5
145
100
AcDbEntity
8
0
100
AcDbLine
10
0
20
-575
30
0
11
664
21
-575
31
0
0
LINE
5
146
100
AcDbEntity
8
0
100
AcDbLine
10
664
20
-575
30
0
11
664
21
-866
31
0
0
LINE
5
147
100
AcDbEntity
8
0
100
AcDbLine
10
664
20
-866
30
0
11
0
21
-866
31
0
0
LINE
5
148
100
AcDbEntity
8
0
100
AcDbLine
10
0
20
-866
30
0
11
0
21
-575
31
0
0
LINE
5
149
100
AcDbEntity
8
0
100
AcDbLine
10
0
20
-575
30
0
11
332
21
-575
31
0
0
LINE
5
150
100
AcDbEntity
8
0
100
AcDbLine
10
332
20
-575
30
0
11
332
21
-649.73357899999996
31
0
0
LINE
5
151
100
AcDbEntity
8
0
100
AcDbLine
10
0
20
-649.73357899999996
30
0
11
0
21
-575
31
0
0
LINE
5
152
100
AcDbEntity
8
0
100
AcDbLine
10
332
20
-649.73357899999996
30
0
11
289
21
-649.73357899999996
31
0
0
LINE
5
153
100
AcDbEntity
8
0
100
AcDbLine
10
150.80813880000105
20
-749.0793440000017
30
0
11
137.91499479999999
21
-749.07934399999999
31
0
0
LINE
5
154
100
AcDbEntity
8
0
100
AcDbLine
10
223.70128280000222
20
-749.07934400000386
30
0
11
210.80813880000105
21
-749.0793440000017
31
0
0
LINE
5
155
100
AcDbEntity
8
0
100
AcDbLine
10
842.8370874021756
20
-502.29917097560866
30
0
11
842.8370874021756
21
-516.29917118422486
31
0
0
LINE
5
156
100
AcDbEntity
8
0
100
AcDbLine
10
820.83708740217389
20
-547.42305718422426
30
0
11
842.8370874021756
21
-532.48265718422499
31
0
0
LINE
5
157
100
AcDbEntity
8
0
100
AcDbLine
10
830.91537681827958
20
-502.36268690073325
30
0
11
830.91537681827958
21
-516.36268690073325
31
0
0
LINE
5
158
100
AcDbEntity
8
0
100
AcDbLine
10
830.91537681827958
20
-516.36268690073325
30
0
11
842.8370874021756
21
-532.48265718422499
31
0
0
LINE
5
159
100
AcDbEntity
8
0
100
AcDbLine
10
842.8370874021756
20
-516.29917118422486
30
0
11
842.8370874021756
21
-532.48265718422499
31
0
0
CIRCLE
5
160
100
AcDbEntity
8
0
100
AcDbCircle
10
798.83708740217401
20
-547.42305718422426
30
0
40
2.6499999999999968
210
0
220
0
230
1
0
CIRCLE
5
161
100
AcDbEntity
8
0
100
AcDbCircle
10
798.99366581828133
20
-471.23880090073385
30
0
40
2.6500000000000057
210
0
220
0
230
1
0
LINE
5
162
100
AcDbEntity
8
0
100
AcDbLine
10
798.99366581828133
20
-471.23880090073385
30
0
11
820.99366581828122
21
-471.23880090073385
31
0
0
CIRCLE
5
163
100
AcDbEntity
8
0
100
AcDbCircle
10
820.83708740217389
20
-547.42305718422426
30
0
40
2.6500000000000075
210
0
220
0
230
1
0
CIRCLE
5
164
100
AcDbEntity
8
0
100
AcDbCircle
10
842.8370874021756
20
-532.48265718422499
30
0
40
2.6500000000000057
210
0
220
0
230
1
0
LINE
5
165
100
AcDbEntity
8
0
100
AcDbLine
10
820.83708740217389
20
-547.42305718422426
30
0
11
798.83708740217401
21
-547.42305718422426
31
0
0
CIRCLE
5
166
100
AcDbEntity
8
0
100
AcDbCircle
10
842.8370874021756
20
-486.1156846696469
30
0
40
2.6500000000000021
210
0
220
0
230
1
0
ARC
5
167
100
AcDbEntity
8
0
100
AcDbCircle
10
830.91537681827958
20
-509.36268690073325
30
0
40
7.0000000000000284
210
0
220
0
230
1
100
AcDbArc
50
-90
51
90
0
CIRCLE
5
168
100
AcDbEntity
8
0
100
AcDbCircle
10
820.99366581828122
20
-471.23880090073385
30
0
40
2.6500000000000057
210
0
220
0
230
1
0
LINE
5
169
100
AcDbEntity
8
0
100
AcDbLine
10
830.91537681827958
20
-502.36268690073325
30
0
11
842.8370874021756
21
-502.36268690073325
31
0
0
LINE
5
170
100
AcDbEntity
8
0
100
AcDbLine
10
830.91537681827958
20
-502.36268690073325
30
0
11
830.91537681827958
21
-516.36268690073325
31
0
0
LINE
5
171
100
AcDbEntity
8
0
100
AcDbLine
10
830.91537681827958
20
-516.36268690073325
30
0
11
842.8370874021756
21
-532.48265718422499
31
0
0
ARC
5
172
100
AcDbEntity
8
0
100
AcDbCircle
10
830.91537681827958
20
-509.36268690073325
30
0
40
7.0000000000000284
210
0
220
0
230
1
100
AcDbArc
50
-90
51
90
0
LINE
5
173
100
AcDbEntity
8
0
100
AcDbLine
10
798.83708740217401
20
-547.42305718422426
30
0
11
776.83708740217401
21
-547.42305718422426
31
0
0
LINE
5
174
100
AcDbEntity
8
0
100
AcDbLine
10
744.91537681827947
20
-502.36268690073325
30
0
11
830.91537681827958
21
-502.36268690073325
31
0
0
LINE
5
175
100
AcDbEntity
8
0
100
AcDbLine
10
776.99366581828133
20
-471.23880090073385
30
0
11
798.99366581828133
21
-471.23880090073385
31
0
0
LINE
5
176
100
AcDbEntity
8
0
100
AcDbLine
10
830.91537681827958
20
-516.36268690073325
30
0
11
744.91537681827947
21
-516.36268690073325
31
0
0
CIRCLE
5
177
100
AcDbEntity
8
0
100
AcDbCircle
10
754.83708740217389
20
-547.42305718422426
30
0
40
2.6500000000000057
210
0
220
0
230
1
0
LINE
5
178
100
AcDbEntity
8
0
100
AcDbLine
10
732.99366581827951
20
-502.36268690073325
30
0
11
732.99366581827951
21
-486.17920090073324
31
0
0
CIRCLE
5
179
100
AcDbEntity
8
0
100
AcDbCircle
10
776.83708740217401
20
-547.42305718422426
30
0
40
2.6500000000000057
210
0
220
0
230
1
0
LINE
5
180
100
AcDbEntity
8
0
100
AcDbLine
10
787.91537681827947
20
-509.36268690073325
30
0
11
744.91537681827947
21
-509.36268690073325
31
0
0
LINE
5
181
100
AcDbEntity
8
0
100
AcDbLine
10
744.91537681827947
20
-502.36268690073325
30
0
11
732.99366581827951
21
-502.36268690073325
31
0
0
LINE
5
182
100
AcDbEntity
8
0
100
AcDbLine
10
754.99366581828122
20
-471.23880090073385
30
0
11
776.99366581828133
21
-471.23880090073385
31
0
0
CIRCLE
5
183
100
AcDbEntity
8
0
100
AcDbCircle
10
776.99366581828133
20
-471.23880090073385
30
0
40
2.6500000000000008
210
0
220
0
230
1
0
CIRCLE
5
184
100
AcDbEntity
8
0
100
AcDbCircle
10
754.99366581828122
20
-471.23880090073385
30
0
40
2.6499999999999928
210
0
220
0
230
1
0
LINE
5
185
100
AcDbEntity
8
0
100
AcDbLine
10
732.99366581827951
20
-486.17920090073324
30
0
11
744.91537681827947
21
-502.36268690073325
31
0
0
CIRCLE
5
186
100
AcDbEntity
8
0
100
AcDbCircle
10
732.99366581827951
20
-532.54617290073338
30
0
40
2.6500000000000057
210
0
220
0
230
1
0
LINE
5
187
100
AcDbEntity
8
0
100
AcDbLine
10
776.83708740217401
20
-547.42305718422426
30
0
11
754.83708740217389
21
-547.42305718422426
31
0
0
LINE
5
188
100
AcDbEntity
8
0
100
AcDbLine
10
744.91537681827947
20
-516.36268690073325
30
0
11
732.99366581827951
21
-516.36268690073325
31
0
0
LINE
5
189
100
AcDbEntity
8
0
100
AcDbLine
10
732.99366581827951
20
-516.36268690073325
30
0
11
732.99366581827951
21
-532.54617290073338
31
0
0
LINE
5
190
100
AcDbEntity
8
0
100
AcDbLine
10
754.99366581828122
20
-471.23880090073385
30
0
11
732.99366581827951
21
-486.17920090073324
31
0
0
LINE
5
191
100
AcDbEntity
8
0
100
AcDbLine
10
744.91537681827947
20
-502.36268690073325
30
0
11
744.91537681827947
21
-516.36268690073325
31
0
0
LINE
5
192
100
AcDbEntity
8
0
100
AcDbLine
10
830.91537681827958
20
-502.36268690073325
30
0
11
842.8370874021756
21
-486.1156846696469
31
0
0
LINE
5
193
100
AcDbEntity
8
0
100
AcDbLine
10
842.8370874021756
20
-486.1156846696469
30
0
11
842.8370874021756
21
-502.29917097560866
31
0
0
LINE
5
194
100
AcDbEntity
8
0
100
AcDbLine
10
842.8370874021756
20
-516.29917118422486
30
0
11
842.8370874021756
21
-532.48265718422499
31
0
0
LINE
5
195
100
AcDbEntity
8
0
100
AcDbLine
10
842.8370874021756
20
-486.1156846696469
30
0
11
842.8370874021756
21
-502.29917097560866
31
0
0
LINE
5
196
100
AcDbEntity
8
0
100
AcDbLine
10
842.8370874021756
20
-502.29917097560866
30
0
11
842.8370874021756
21
-516.29917118422486
31
0
0
LINE
5
197
100
AcDbEntity
8
0
100
AcDbLine
10
830.91537681827958
20
-502.36268690073325
30
0
11
842.8370874021756
21
-486.1156846696469
31
0
0
LINE
5
198
100
AcDbEntity
8
0
100
AcDbLine
10
744.91537681827947
20
-516.36268690073325
30
0
11
732.99366581827951
21
-532.54617290073338
31
0
0
CIRCLE
5
199
100
AcDbEntity
8
0
100
AcDbCircle
10
732.99366581827951
20
-486.17920090073324
30
0
40
2.6500000000000057
210
0
220
0
230
1
0
ARC
5
200
100
AcDbEntity
8
0
100
AcDbCircle
10
744.91537681827947
20
-509.36268690073325
30
0
40
7.0000000000000284
210
0
220
-0
230
1
100
AcDbArc
50
90
51
270
0
CIRCLE
5
201
100
AcDbEntity
8
0
100
AcDbCircle
10
-55.985824282153516
20
-345.95274110349862
30
0
40
2.6500000000000057
210
0
220
0
230
1
0
LINE
5
202
100
AcDbEntity
8
0
100
AcDbLine
10
-55.985824282153516
20
-299.58576858892059
30
0
11
-55.985824282153516
21
-315.76925489488235
31
0
0
CIRCLE
5
203
100
AcDbEntity
8
0
100
AcDbCircle
10
-77.829245866047927
20
-284.70888482000754
30
0
40
2.6500000000000057
210
0
220
0
230
1
0
LINE
5
204
100
AcDbEntity
8
0
100
AcDbLine
10
-153.90753486604964
20
-329.832770820007
30
0
11
-165.8292458660496
21
-346.01625682000702
31
0
0
LINE
5
205
100
AcDbEntity
8
0
100
AcDbLine
10
-121.82924586604784
20
-284.70888482000754
30
0
11
-99.829245866047813
21
-284.70888482000754
31
0
0
LINE
5
206
100
AcDbEntity
8
0
100
AcDbLine
10
-153.90753486604964
20
-329.832770820007
30
0
11
-165.8292458660496
21
-329.832770820007
31
0
0
ARC
5
207
100
AcDbEntity
8
0
100
AcDbCircle
10
-153.90753486604964
20
-322.83277082000694
30
0
40
7.0000000000000284
210
0
220
-0
230
1
100
AcDbArc
50
90
51
270
0
LINE
5
208
100
AcDbEntity
8
0
100
AcDbLine
10
-165.8292458660496
20
-329.832770820007
30
0
11
-165.8292458660496
21
-346.01625682000702
31
0
0
CIRCLE
5
209
100
AcDbEntity
8
0
100
AcDbCircle
10
-165.8292458660496
20
-299.64928482000693
30
0
40
2.6500000000000057
210
0
220
0
230
1
0
CIRCLE
5
210
100
AcDbEntity
8
0
100
AcDbCircle
10
-143.98582428215519
20
-360.8931411034979
30
0
40
2.6500000000000057
210
0
220
0
230
1
0
LINE
5
211
100
AcDbEntity
8
0
100
AcDbLine
10
-143.82924586604787
20
-284.70888482000754
30
0
11
-121.82924586604784
21
-284.70888482000754
31
0
0
LINE
5
212
100
AcDbEntity
8
0
100
AcDbLine
10
-153.90753486604964
20
-315.83277082000689
30
0
11
-153.90753486604964
21
-329.832770820007
31
0
0
LINE
5
213
100
AcDbEntity
8
0
100
AcDbLine
10
-153.90753486604964
20
-315.83277082000689
30
0
11
-165.8292458660496
21
-315.83277082000689
31
0
0
CIRCLE
5
214
100
AcDbEntity
8
0
100
AcDbCircle
10
-121.82924586604784
20
-284.70888482000754
30
0
40
2.6500000000000008
210
0
220
0
230
1
0
LINE
5
215
100
AcDbEntity
8
0
100
AcDbLine
10
-67.907534866049559
20
-329.832770820007
30
0
11
-153.90753486604964
21
-329.832770820007
31
0
0
LINE
5
216
100
AcDbEntity
8
0
100
AcDbLine
10
-55.985824282153516
20
-315.76925489488235
30
0
11
-55.985824282153516
21
-329.76925510349861
31
0
0
LINE
5
217
100
AcDbEntity
8
0
100
AcDbLine
10
-153.90753486604964
20
-315.83277082000689
30
0
11
-67.907534866049559
21
-315.83277082000689
31
0
0
CIRCLE
5
218
100
AcDbEntity
8
0
100
AcDbCircle
10
-77.985824282155249
20
-360.8931411034979
30
0
40
2.6500000000000075
210
0
220
0
230
1
0
ARC
5
219
100
AcDbEntity
8
0
100
AcDbCircle
10
-67.907534866049559
20
-322.83277082000694
30
0
40
7.0000000000000284
210
0
220
0
230
1
100
AcDbArc
50
-90
51
90
0
ARC
5
220
100
AcDbEntity
8
0
100
AcDbCircle
10
-67.907534866049559
20
-322.83277082000694
30
0
40
7.0000000000000284
210
0
220
0
230
1
100
AcDbArc
50
-90
51
90
0
LINE
5
221
100
AcDbEntity
8
0
100
AcDbLine
10
-67.907534866049559
20
-315.83277082000689
30
0
11
-55.985824282153516
21
-299.58576858892059
31
0
0
LINE
5
222
100
AcDbEntity
8
0
100
AcDbLine
10
-67.907534866049559
20
-315.83277082000689
30
0
11
-67.907534866049559
21
-329.832770820007
31
0
0
LINE
5
223
100
AcDbEntity
8
0
100
AcDbLine
10
-67.907534866049559
20
-315.83277082000689
30
0
11
-55.985824282153516
21
-315.83277082000689
31
0
0
CIRCLE
5
224
100
AcDbEntity
8
0
100
AcDbCircle
10
-55.985824282153516
20
-299.58576858892059
30
0
40
2.6500000000000021
210
0
220
0
230
1
0
LINE
5
225
100
AcDbEntity
8
0
100
AcDbLine
10
-99.829245866047813
20
-284.70888482000754
30
0
11
-77.829245866047927
21
-284.70888482000754
31
0
0
LINE
5
226
100
AcDbEntity
8
0
100
AcDbLine
10
-67.907534866049559
20
-329.832770820007
30
0
11
-55.985824282153516
21
-345.95274110349862
31
0
0
CIRCLE
5
227
100
AcDbEntity
8
0
100
AcDbCircle
10
-99.985824282155136
20
-360.8931411034979
30
0
40
2.6499999999999968
210
0
220
0
230
1
0
LINE
5
228
100
AcDbEntity
8
0
100
AcDbLine
10
-77.985824282155249
20
-360.8931411034979
30
0
11
-55.985824282153516
21
-345.95274110349862
31
0
0
CIRCLE
5
229
100
AcDbEntity
8
0
100
AcDbCircle
10
-99.829245866047813
20
-284.70888482000754
30
0
40
2.6500000000000057
210
0
220
0
230
1
0
LINE
5
230
100
AcDbEntity
8
0
100
AcDbLine
10
-55.985824282153516
20
-299.58576858892059
30
0
11
-55.985824282153516
21
-315.76925489488235
31
0
0
LINE
5
231
100
AcDbEntity
8
0
100
AcDbLine
10
-67.907534866049559
20
-329.832770820007
30
0
11
-55.985824282153516
21
-345.95274110349862
31
0
0
LINE
5
232
100
AcDbEntity
8
0
100
AcDbLine
10
-77.985824282155249
20
-360.8931411034979
30
0
11
-99.985824282155136
21
-360.8931411034979
31
0
0
LINE
5
233
100
AcDbEntity
8
0
100
AcDbLine
10
-55.985824282153516
20
-329.76925510349861
30
0
11
-55.985824282153516
21
-345.95274110349862
31
0
0
LINE
5
234
100
AcDbEntity
8
0
100
AcDbLine
10
-55.985824282153516
20
-329.76925510349861
30
0
11
-55.985824282153516
21
-345.95274110349862
31
0
0
LINE
5
235
100
AcDbEntity
8
0
100
AcDbLine
10
-165.8292458660496
20
-315.83277082000689
30
0
11
-165.8292458660496
21
-299.64928482000693
31
0
0
LINE
5
236
100
AcDbEntity
8
0
100
AcDbLine
10
-165.8292458660496
20
-299.64928482000693
30
0
11
-153.90753486604964
21
-315.83277082000689
31
0
0
LINE
5
237
100
AcDbEntity
8
0
100
AcDbLine
10
-99.985824282155136
20
-360.8931411034979
30
0
11
-121.98582428215516
21
-360.8931411034979
31
0
0
LINE
5
238
100
AcDbEntity
8
0
100
AcDbLine
10
-110.90753486604967
20
-322.83277082000694
30
0
11
-153.90753486604964
21
-322.83277082000694
31
0
0
CIRCLE
5
239
100
AcDbEntity
8
0
100
AcDbCircle
10
-165.8292458660496
20
-346.01625682000702
30
0
40
2.6500000000000057
210
0
220
0
230
1
0
LINE
5
240
100
AcDbEntity
8
0
100
AcDbLine
10
-121.98582428215516
20
-360.8931411034979
30
0
11
-143.98582428215519
21
-360.8931411034979
31
0
0
LINE
5
241
100
AcDbEntity
8
0
100
AcDbLine
10
-67.907534866049559
20
-315.83277082000689
30
0
11
-55.985824282153516
21
-299.58576858892059
31
0
0
LINE
5
242
100
AcDbEntity
8
0
100
AcDbLine
10
-67.907534866049559
20
-315.83277082000689
30
0
11
-67.907534866049559
21
-329.832770820007
31
0
0
CIRCLE
5
243
100
AcDbEntity
8
0
100
AcDbCircle
10
-143.82924586604787
20
-284.70888482000754
30
0
40
2.6499999999999928
210
0
220
0
230
1
0
CIRCLE
5
244
100
AcDbEntity
8
0
100
AcDbCircle
10
-121.98582428215516
20
-360.8931411034979
30
0
40
2.6500000000000057
210
0
220
0
230
1
0
LINE
5
245
100
AcDbEntity
8
0
100
AcDbLine
10
-55.985824282153516
20
-315.76925489488235
30
0
11
-55.985824282153516
21
-329.76925510349861
31
0
0
LINE
5
246
100
AcDbEntity
8
0
100
AcDbLine
10
-143.82924586604787
20
-284.70888482000754
30
0
11
-165.8292458660496
21
-299.64928482000693
31
0
0
LINE
5
247
100
AcDbEntity
8
0
100
AcDbLine
10
0
20
-1260
30
0
11
664
21
-1260
31
0
0
LINE
5
248
100
AcDbEntity
8
0
100
AcDbLine
10
664
20
-1260
30
0
11
664
21
-1333
31
0
0
LINE
5
249
100
AcDbEntity
8
0
100
AcDbLine
10
664
20
-1333
30
0
11
-3.2355623065705562e-30
21
-1333
31
0
0
LINE
5
250
100
AcDbEntity
8
0
100
AcDbLine
10
-3.2355623065705562e-30
20
-1333
30
0
11
0
21
-1260
31
0
0
LWPOLYLINE
5
251
100
AcDbEntity
8
0
100
AcDbPolyline
90
4
70
1
43
0.0
10
3.2355623065705562e-30
20
-1422
10
0
20
-1495
10
664
20
-1495
10
664
20
-1422
0
CIRCLE
5
252
100
AcDbEntity
8
0
100
AcDbCircle
10
-680.31903148192691
20
-279.93647111159873
30
0
40
2.6500000000000075
210
0
220
0
230
1
0
LINE
5
253
100
AcDbEntity
8
0
100
AcDbLine
10
-604.94202486582128
20
-341.22186582810787
30
0
11
-664.94202486582128
21
-341.22186582810787
31
0
0
CIRCLE
5
254
100
AcDbEntity
8
0
100
AcDbCircle
10
-658.31903148192509
20
-264.99607111159946
30
0
40
2.6500000000000057
210
0
220
0
230
1
0
LINE
5
255
100
AcDbEntity
8
0
100
AcDbLine
10
-592.04888086582127
20
-341.22186582810787
30
0
11
-604.94202486582128
21
-341.22186582810787
31
0
0
LINE
5
256
100
AcDbEntity
8
0
100
AcDbLine
10
-834.43260326582026
20
-341.22186582810957
30
0
11
-834.43260326582026
21
-281.22186582810957
31
0
0
LINE
5
257
100
AcDbEntity
8
0
100
AcDbLine
10
-907.32574726582129
20
-341.22186582810787
30
0
11
-967.32574726582129
21
-341.22186582810787
31
0
0
LINE
5
258
100
AcDbEntity
8
0
100
AcDbLine
10
-592.04888086582127
20
-281.22186582810787
30
0
11
-532.04888086582127
21
-281.22186582810787
31
0
0
LINE
5
259
100
AcDbEntity
8
0
100
AcDbLine
10
-967.32574726582129
20
-281.22186582810787
30
0
11
-907.32574726582129
21
-281.22186582810787
31
0
0
LINE
5
260
100
AcDbEntity
8
0
100
AcDbLine
10
-761.53945926581912
20
-281.22186582811167
30
0
11
-821.53945926581912
21
-281.22186582811167
31
0
0
LINE
5
261
100
AcDbEntity
8
0
100
AcDbLine
10
-907.32574726582129
20
-281.22186582810787
30
0
11
-907.32574726582129
21
-341.22186582810787
31
0
0
LINE
5
262
100
AcDbEntity
8
0
100
AcDbLine
10
-821.53945926581912
20
-341.22186582811167
30
0
11
-834.43260326582026
21
-341.22186582810957
31
0
0
LINE
5
263
100
AcDbEntity
8
0
100
AcDbLine
10
-532.04888086582127
20
-341.22186582810787
30
0
11
-592.04888086582127
21
-341.22186582810787
31
0
0
LINE
5
264
100
AcDbEntity
8
0
100
AcDbLine
10
-821.53945926581912
20
-341.22186582811167
30
0
11
-761.53945926581912
21
-341.22186582811167
31
0
0
LINE
5
265
100
AcDbEntity
8
0
100
AcDbLine
10
-1045.2407420658212
20
-198.34002982810773
30
0
11
-1045.2407420658212
21
-167.14252182810782
31
0
0
LINE
5
266
100
AcDbEntity
8
0
100
AcDbLine
10
-821.53945926581912
20
-281.22186582811167
30
0
11
-821.53945926581912
21
-341.22186582811167
31
0
0
LINE
5
267
100
AcDbEntity
8
0
100
AcDbLine
10
-894.43260326582026
20
-281.22186582810957
30
0
11
-894.43260326582026
21
-341.22186582810957
31
0
0
LINE
5
268
100
AcDbEntity
8
0
100
AcDbLine
10
-967.32574726582129
20
-341.22186582810787
30
0
11
-967.32574726582129
21
-281.22186582810787
31
0
0
CIRCLE
5
269
100
AcDbEntity
8
0
100
AcDbCircle
10
-724.16245306581936
20
-203.75221482810844
30
0
40
2.6500000000000008
210
0
220
0
230
1
0
CIRCLE
5
270
100
AcDbEntity
8
0
100
AcDbCircle
10
-746.16245306581959
20
-203.75221482810844
30
0
40
2.6499999999999928
210
0
220
0
230
1
0
CIRCLE
5
271
100
AcDbEntity
8
0
100
AcDbCircle
10
-724.31903148192669
20
-279.93647111159873
30
0
40
2.6500000000000057
210
0
220
0
230
1
0
LWPOLYLINE
5
272
100
AcDbEntity
8
0
100
AcDbPolyline
90
4
70
1
43
0.0
10
-756.24074206582122
20
-248.87610082810781
42
-0.99999999999999989
10
-756.24074206582122
20
-234.87610082810775
10
-670.24074206582122
20
-234.87610082810775
42
-0.99999999999999989
10
-670.24074206582122
20
-248.87610082810781
0
LINE
5
273
100
AcDbEntity
8
0
100
AcDbLine
10
-761.53945926581912
20
-341.22186582811167
30
0
11
-761.53945926581912
21
-281.22186582811167
31
0
0
CIRCLE
5
274
100
AcDbEntity
8
0
100
AcDbCircle
10
-680.16245306581959
20
-203.75221482810844
30
0
40
2.6500000000000057
210
0
220
0
230
1
0
LINE
5
275
100
AcDbEntity
8
0
100
AcDbLine
10
-592.04888086582127
20
-341.22186582810787
30
0
11
-592.04888086582127
21
-281.22186582810787
31
0
0
CIRCLE
5
276
100
AcDbEntity
8
0
100
AcDbCircle
10
-768.16245306582118
20
-265.05958682810785
30
0
40
2.6500000000000057
210
0
220
0
230
1
0
CIRCLE
5
277
100
AcDbEntity
8
0
100
AcDbCircle
10
-746.31903148192691
20
-279.93647111159873
30
0
40
2.6500000000000057
210
0
220
0
230
1
0
CIRCLE
5
278
100
AcDbEntity
8
0
100
AcDbCircle
10
-768.16245306582118
20
-218.69261482810771
30
0
40
2.6500000000000057
210
0
220
0
230
1
0
LINE
5
279
100
AcDbEntity
8
0
100
AcDbLine
10
-381.24074206582122
20
-167.14252182810782
30
0
11
-381.24074206582122
21
-198.34002982810773
31
0
0
LWPOLYLINE
5
280
100
AcDbEntity
8
0
100
AcDbPolyline
90
4
70
1
43
0.0
10
-903.55098006582125
20
-231.34002982810784
10
-903.55098006582125
20
-198.34002982810773
10
-936.55098006582125
20
-198.34002982810773
10
-936.55098006582125
20
-231.34002982810784
0
LINE
5
281
100
AcDbEntity
8
0
100
AcDbLine
10
-894.43260326582026
20
-341.22186582810957
30
0
11
-834.43260326582026
21
-341.22186582810957
31
0
0
LINE
5
282
100
AcDbEntity
8
0
100
AcDbLine
10
-894.43260326582026
20
-341.22186582810957
30
0
11
-907.32574726582129
21
-341.22186582810787
31
0
0
LINE
5
283
100
AcDbEntity
8
0
100
AcDbLine
10
-1045.2407420658212
20
-241.87610082810778
30
0
11
-1045.2407420658212
21
-167.14252182810782
31
0
0
LWPOLYLINE
5
284
100
AcDbEntity
8
0
100
AcDbPolyline
90
4
70
1
43
0.0
10
-381.24074206582122
20
-167.14252182810782
10
-1045.2407420658212
20
-167.14252182810782
10
-1045.2407420658212
20
-458.14252182810776
10
-381.24074206582122
20
-458.14252182810776
0
LINE
5
285
100
AcDbEntity
8
0
100
AcDbLine
10
-1045.2407420658212
20
-167.14252182810782
30
0
11
-713.24074206582122
21
-167.14252182810782
31
0
0
LINE
5
286
100
AcDbEntity
8
0
100
AcDbLine
10
-834.43260326582026
20
-281.22186582810957
30
0
11
-894.43260326582026
21
-281.22186582810957
31
0
0
LWPOLYLINE
5
287
100
AcDbEntity
8
0
100
AcDbPolyline
90
4
70
1
43
0.0
10
-522.9305040658212
20
-231.34002982810784
10
-522.9305040658212
20
-198.34002982810773
10
-489.93050406582131
20
-198.34002982810773
10
-489.93050406582131
20
-231.34002982810784
0
LINE
5
288
100
AcDbEntity
8
0
100
AcDbLine
10
-519.15573686582115
20
-281.22186582810787
30
0
11
-519.15573686582115
21
-341.22186582810787
31
0
0
LINE
5
289
100
AcDbEntity
8
0
100
AcDbLine
10
-519.15573686582115
20
-341.22186582810787
30
0
11
-532.04888086582127
21
-341.22186582810787
31
0
0
LINE
5
290
100
AcDbEntity
8
0
100
AcDbLine
10
-459.15573686582121
20
-281.22186582810787
30
0
11
-519.15573686582115
21
-281.22186582810787
31
0
0
LINE
5
291
100
AcDbEntity
8
0
100
AcDbLine
10
-519.15573686582115
20
-341.22186582810787
30
0
11
-459.15573686582121
21
-341.22186582810787
31
0
0
LINE
5
292
100
AcDbEntity
8
0
100
AcDbLine
10
-532.04888086582127
20
-281.22186582810787
30
0
11
-532.04888086582127
21
-341.22186582810787
31
0
0
LINE
5
293
100
AcDbEntity
8
0
100
AcDbLine
10
-459.15573686582121
20
-341.22186582810787
30
0
11
-459.15573686582121
21
-281.22186582810787
31
0
0
CIRCLE
5
294
100
AcDbEntity
8
0
100
AcDbCircle
10
-658.31903148192509
20
-218.62909859702143
30
0
40
2.6500000000000021
210
0
220
0
230
1
0
LINE
5
295
100
AcDbEntity
8
0
100
AcDbLine
10
-664.94202486582128
20
-281.22186582810787
30
0
11
-604.94202486582128
21
-281.22186582810787
31
0
0
LINE
5
296
100
AcDbEntity
8
0
100
AcDbLine
10
-664.94202486582128
20
-341.22186582810787
30
0
11
-664.94202486582128
21
-281.22186582810787
31
0
0
ARC
5
297
100
AcDbEntity
8
0
100
AcDbCircle
10
-670.24074206582122
20
-241.87610082810778
30
0
40
7.0000000000000284
210
0
220
0
230
1
100
AcDbArc
50
-90
51
90
0
CIRCLE
5
298
100
AcDbEntity
8
0
100
AcDbCircle
10
-702.16245306581959
20
-203.75221482810844
30
0
40
2.6500000000000057
210
0
220
0
230
1
0
LINE
5
299
100
AcDbEntity
8
0
100
AcDbLine
10
-604.94202486582128
20
-281.22186582810787
30
0
11
-604.94202486582128
21
-341.22186582810787
31
0
0
CIRCLE
5
300
100
AcDbEntity
8
0
100
AcDbCircle
10
-702.31903148192691
20
-279.93647111159873
30
0
40
2.6499999999999968
210
0
220
0
230
1
0
LWPOLYLINE
5
301
100
AcDbEntity
8
0
100
AcDbPolyline
90
4
70
1
43
0.0
10
664
20
-141
10
664
20
150
10
0
20
150
10
0
20
-141
0
LWPOLYLINE
5
302
100
AcDbEntity
8
0
100
AcDbPolyline
90
8
70
1
43
0.0
10
60
20
120
10
604
20
120
42
-0.41421356237309648
10
634
20
90
10
634
20
-80.999999999999943
42
-0.41421356237309609
10
604
20
-110.99999999999991
10
59.999999999999964
20
-110.99999999999994
42
-0.41421356237309576
10
29.999999999999972
20
-80.999999999999929
10
29.999999999999982
20
90.000000000000014
42
-0.41421356237309576
0
LINE
5
303
100
AcDbEntity
8
0
100
AcDbLine
10
634
20
120
30
0
11
29.999999999999972
21
-110.99999999999994
31
0
0
LINE
5
304
100
AcDbEntity
8
0
100
AcDbLine
10
29.999999999999986
20
120
30
0
11
634
21
-110.99999999999994
31
0
0
LINE
5
305
100
AcDbEntity
8
0
100
AcDbLine
10
0
20
120
30
0
11
0
21
150
31
0
0
LINE
5
306
100
AcDbEntity
8
0
100
AcDbLine
10
664
20
-141
30
0
11
644.00019180091977
21
-121.00019180091974
31
0
0
LINE
5
307
100
AcDbEntity
8
0
100
AcDbLine
10
664
20
150
30
0
11
644.00019180091977
21
130.00019180091968
31
0
0
LINE
5
308
100
AcDbEntity
8
0
100
AcDbLine
10
0
20
150
30
0
11
19.999808199080324
21
130.00019180091968
31
0
0
LINE
5
309
100
AcDbEntity
8
0
100
AcDbLine
10
0
20
-141
30
0
11
19.999808199080352
21
-121.00019180091974
31
0
0
LINE
5
310
100
AcDbEntity
8
0
100
AcDbLine
10
664
20
-491
30
0
11
644.00019180091977
21
-471.00019180091977
31
0
0
LINE
5
311
100
AcDbEntity
8
0
100
AcDbLine
10
664
20
-200
30
0
11
644.00019180091977
21
-219.99980819908032
31
0
0
LWPOLYLINE
5
312
100
AcDbEntity
8
0
100
AcDbPolyline
90
8
70
1
43
0.0
10
634
20
-260
10
634
20
-430.99999999999994
42
-0.41421356237309648
10
604
20
-460.99999999999994
10
59.999999999999964
20
-460.99999999999994
42
-0.41421356237309631
10
29.999999999999982
20
-430.99999999999994
10
30
20
-260
42
-0.41421356237309503
10
60
20
-230
10
604
20
-230
42
-0.41421356237309576
0
LWPOLYLINE
5
313
100
AcDbEntity
8
0
100
AcDbPolyline
90
4
70
1
43
0.0
10
664
20
-491
10
664
20
-200
10
0
20
-200
10
0
20
-491
0
LINE
5
314
100
AcDbEntity
8
0
100
AcDbLine
10
29.999999999999986
20
-230
30
0
11
634
21
-460.99999999999994
31
0
0
LINE
5
315
100
AcDbEntity
8
0
100
AcDbLine
10
634
20
-230
30
0
11
29.999999999999972
21
-460.99999999999994
31
0
0
LINE
5
316
100
AcDbEntity
8
0
100
AcDbLine
10
0
20
-491
30
0
11
19.999808199080352
21
-471.00019180091977
31
0
0
LINE
5
317
100
AcDbEntity
8
0
100
AcDbLine
10
0
20
-200
30
0
11
19.999808199080324
21
-219.99980819908032
31
0
0
LINE
5
318
100
AcDbEntity
8
0
100
AcDbLine
10
0
20
-230
30
0
11
0
21
-200
31
0
0
CIRCLE
5
319
100
AcDbEntity
8
0
100
AcDbCircle
10
644.00019180091977
20
-219.99980819908032
30
0
40
3.249999999999976
210
0
220
0
230
1
0
CIRCLE
5
320
100
AcDbEntity
8
0
100
AcDbCircle
10
644.00019180091977
20
-471.00019180091977
30
0
40
3.2499999999999556
210
0
220
0
230
1
0
CIRCLE
5
321
100
AcDbEntity
8
0
100
AcDbCircle
10
644.00019180091977
20
-121.00019180091974
30
0
40
9.0000000000000462
210
0
220
0
230
1
0
CIRCLE
5
322
100
AcDbEntity
8
0
100
AcDbCircle
10
644.00019180091977
20
130.00019180091968
30
0
40
9.0000000000000036
210
0
220
0
230
1
0
CIRCLE
5
323
100
AcDbEntity
8
0
100
AcDbCircle
10
19.999808199080324
20
130.00019180091968
30
0
40
9.0000000000000036
210
0
220
0
230
1
0
CIRCLE
5
324
100
AcDbEntity
8
0
100
AcDbCircle
10
19.999808199080352
20
-121.00019180091974
30
0
40
9.0000000000000036
210
0
220
0
230
1
0
CIRCLE
5
325
100
AcDbEntity
8
0
100
AcDbCircle
10
19.999808199080324
20
-219.99980819908032
30
0
40
3.2499999999999929
210
0
220
0
230
1
0
CIRCLE
5
326
100
AcDbEntity
8
0
100
AcDbCircle
10
19.999808199080352
20
-471.00019180091977
30
0
40
3.2500000000000284
210
0
220
0
230
1
0
LINE
5
327
100
AcDbEntity
8
0
100
AcDbLine
10
664
20
-575
30
0
11
644
21
-575
31
0
0
LINE
5
328
100
AcDbEntity
8
0
100
AcDbLine
10
644
20
-575
30
0
11
644
21
-595
31
0
0
LINE
5
329
100
AcDbEntity
8
0
100
AcDbLine
10
644
20
-595
30
0
11
664
21
-595
31
0
0
LINE
5
330
100
AcDbEntity
8
0
100
AcDbLine
10
664
20
-595
30
0
11
664
21
-575
31
0
0
LINE
5
331
100
AcDbEntity
8
0
100
AcDbLine
10
664
20
-866
30
0
11
644
21
-866
31
0
0
LINE
5
332
100
AcDbEntity
8
0
100
AcDbLine
10
644
20
-866
30
0
11
644
21
-846
31
0
0
LINE
5
333
100
AcDbEntity
8
0
100
AcDbLine
10
644
20
-846
30
0
11
664
21
-846
31
0
0
LINE
5
334
100
AcDbEntity
8
0
100
AcDbLine
10
664
20
-846
30
0
11
664
21
-866
31
0
0
LINE
5
335
100
AcDbEntity
8
0
100
AcDbLine
10
0
20
-866
30
0
11
20
21
-866
31
0
0
LINE
5
336
100
AcDbEntity
8
0
100
AcDbLine
10
20
20
-866
30
0
11
20
21
-846
31
0
0
LINE
5
337
100
AcDbEntity
8
0
100
AcDbLine
10
20
20
-846
30
0
11
0
21
-846
31
0
0
LINE
5
338
100
AcDbEntity
8
0
100
AcDbLine
10
0
20
-846
30
0
11
0
21
-866
31
0
0
LINE
5
339
100
AcDbEntity
8
0
100
AcDbLine
10
0
20
-575
30
0
11
20
21
-575
31
0
0
LINE
5
340
100
AcDbEntity
8
0
100
AcDbLine
10
20
20
-575
30
0
11
20
21
-595
31
0
0
LINE
5
341
100
AcDbEntity
8
0
100
AcDbLine
10
20
20
-595
30
0
11
0
21
-595
31
0
0
LINE
5
342
100
AcDbEntity
8
0
100
AcDbLine
10
0
20
-595
30
0
11
0
21
-575
31
0
0
CIRCLE
5
343
100
AcDbEntity
8
0
100
AcDbCircle
10
20
20
-595
30
0
40
2.4999999999999902
210
0
220
0
230
1
0
CIRCLE
5
344
100
AcDbEntity
8
0
100
AcDbCircle
10
644
20
-595
30
0
40
2.4999999999999996
210
0
220
0
230
1
0
CIRCLE
5
345
100
AcDbEntity
8
0
100
AcDbCircle
10
20
20
-846
30
0
40
2.5
210
0
220
0
230
1
0
CIRCLE
5
346
100
AcDbEntity
8
0
100
AcDbCircle
10
644
20
-846
30
0
40
2.5
210
0
220
0
230
1
0
LWPOLYLINE
5
347
100
AcDbEntity
8
0
100
AcDbPolyline
90
4
70
1
43
0.0
10
1357.4968057956587
20
-1645.2647131231195
10
1066.4968057956585
20
-1645.2647131231195
10
1066.4968057956585
20
-1712.2647131231192
10
1357.4968057956587
20
-1712.2647131231192
0
LWPOLYLINE
5
348
100
AcDbEntity
8
0
100
AcDbPolyline
90
4
70
1
43
0.0
10
1007.4968057956587
20
-1645.2647131231195
10
716.49680579565847
20
-1645.2647131231195
10
716.49680579565847
20
-1712.2647131231192
10
1007.4968057956587
20
-1712.2647131231192
0
LWPOLYLINE
5
349
100
AcDbEntity
8
0
100
AcDbPolyline
90
4
70
1
43
0.0
10
1357.4968057956587
20
-845.26471312311946
10
1066.4968057956585
20
-845.26471312311946
10
1066.4968057956585
20
-912.26471312311946
10
1357.4968057956587
20
-912.26471312311946
0
LWPOLYLINE
5
350
100
AcDbEntity
8
0
100
AcDbPolyline
90
4
70
1
43
0.0
10
1007.4968057956587
20
-845.26471312311946
10
716.49680579565847
20
-845.26471312311946
10
716.49680579565847
20
-912.26471312311946
10
1007.4968057956587
20
-912.26471312311946
0
LWPOLYLINE
5
351
100
AcDbEntity
8
0
100
AcDbPolyline
90
4
70
1
43
0.0
10
1473.0942757990908
20
-1345.4329648947216
10
1406.0942757990911
20
-1345.4329648947216
10
1406.0942757990911
20
-1627.4329648947216
10
1473.0942757990908
20
-1627.4329648947216
0
LWPOLYLINE
5
352
100
AcDbEntity
8
0
100
AcDbPolyline
90
4
70
1
43
0.0
10
1506.0942757990911
20
-1627.4329648947216
10
1573.0942757990908
20
-1627.4329648947216
10
1573.0942757990908
20
-1345.4329648947216
10
1506.0942757990911
20
-1345.4329648947216
0
LWPOLYLINE
5
353
100
AcDbEntity
8
0
100
AcDbPolyline
90
4
70
1
43
0.0
10
1506.0942757990911
20
-995.43296489472164
10
1506.0942757990911
20
-1277.4329648947216
10
1573.0942757990908
20
-1277.4329648947216
10
1573.0942757990908
20
-995.43296489472164
0
LWPOLYLINE
5
354
100
AcDbEntity
8
0
100
AcDbPolyline
90
4
70
1
43
0.0
10
1406.0942757990911
20
-995.43296489472164
10
1406.0942757990911
20
-1277.4329648947216
10
1473.0942757990908
20
-1277.4329648947216
10
1473.0942757990908
20
-995.43296489472164
0
LWPOLYLINE
5
355
100
AcDbEntity
8
0
100
AcDbPolyline
90
4
70
1
43
0.0
10
1368.5000025108457
20
-433.0000014975667
10
1339.499996881932
20
-433.0000014975667
10
1339.499996881932
20
-478.99999968707561
10
1368.5000025108457
20
-478.99999968707561
0
LWPOLYLINE
5
356
100
AcDbEntity
8
0
100
AcDbPolyline
90
4
70
1
43
0.0
10
1248.5000007227063
20
-433.0000014975667
10
1219.499999564141
20
-433.0000014975667
10
1219.499999564141
20
-478.99999968707561
10
1248.5000007227063
20
-478.99999968707561
0
LWPOLYLINE
5
357
100
AcDbEntity
8
0
100
AcDbPolyline
90
8
70
1
43
0.0
10
1385.0000027567148
20
-481.99999995529652
42
-0.41421356237309503
10
1370.0000027567148
20
-496.99999995529652
10
1218.0000000447035
20
-496.99999995529652
42
-0.41421356237309503
10
1203.0000000447035
20
-481.99999995529652
10
1203.0000000447035
20
-429.9999987334013
42
-0.41421356237309503
10
1218.0000000447035
20
-414.9999987334013
10
1370.0000027567148
20
-414.99999873340124
42
-0.41421356237309648
10
1385.0000027567148
20
-429.9999987334013
0
CIRCLE
5
358
100
AcDbEntity
8
0
100
AcDbCircle
10
1209.0000001341105
20
-455.99999934434891
30
0
40
2.2592133330360293
210
0
220
0
230
1
0
LINE
5
359
100
AcDbEntity
8
0
100
AcDbLine
10
1203.0000000447035
20
-414.9999987334013
30
0
11
1385.0000027567148
21
-496.99999995529652
31
0
0
LWPOLYLINE
5
360
100
AcDbEntity
8
0
100
AcDbPolyline
90
8
70
1
43
0.0
10
1200
20
-429.99999868869781
42
-0.41421356237309503
10
1218
20
-411.99999868869781
10
1370.0000028014183
20
-411.9999986886977
42
-0.41421356237309503
10
1388.0000028014183
20
-429.99999868869781
10
1388.0000028014183
20
-482
42
-0.41421356237309503
10
1370.0000028014183
20
-500
10
1218
20
-500
42
-0.41421356237309503
10
1200
20
-482
0
LINE
5
361
100
AcDbEntity
8
0
100
AcDbLine
10
1388.0000028014183
20
-411.99999868869781
30
0
11
1200
21
-500
31
0
0
CIRCLE
5
362
100
AcDbEntity
8
0
100
AcDbCircle
10
1294.0000014007092
20
-485.99999979138374
30
0
40
2.2360680108197992
210
0
220
0
230
1
0
LINE
5
363
100
AcDbEntity
8
0
100
AcDbLine
10
1200
20
-411.99999868869781
30
0
11
1388.0000028014183
21
-500
31
0
0
CIRCLE
5
364
100
AcDbEntity
8
0
100
AcDbCircle
10
1294.0000014007092
20
-425.99999889731407
30
0
40
2.2360680108197992
210
0
220
0
230
1
0
LINE
5
365
100
AcDbEntity
8
0
100
AcDbLine
10
1385.0000027567148
20
-414.9999987334013
30
0
11
1203.0000000447035
21
-496.99999995529652
31
0
0
CIRCLE
5
366
100
AcDbEntity
8
0
100
AcDbCircle
10
1379.0000026673079
20
-455.99999934434891
30
0
40
2.2360680108197992
210
0
220
0
230
1
0
CIRCLE
5
367
100
AcDbEntity
8
0
100
AcDbCircle
10
1661.9968057956587
20
-422.7803888662022
30
0
40
2.2360680108197992
210
0
220
0
230
1
0
LWPOLYLINE
5
368
100
AcDbEntity
8
0
100
AcDbPolyline
90
8
70
1
43
0.0
10
1567.9968043949495
20
-426.78038865758583
42
-0.41421356237309503
10
1585.9968043949493
20
-408.78038865758595
10
1737.9968071963676
20
-408.78038865758572
42
-0.41421356237309503
10
1755.9968071963679
20
-426.78038865758583
10
1755.9968071963676
20
-478.78038996888836
42
-0.41421356237309503
10
1737.9968071963676
20
-496.78038996888813
10
1585.9968043949493
20
-496.78038996888813
42
-0.41421356237309503
10
1567.9968043949495
20
-478.78038996888836
0
LWPOLYLINE
5
369
100
AcDbEntity
8
0
100
AcDbPolyline
90
6
70
1
43
0.0
10
1616.4968051176559
20
-429.78039146645483
10
1587.4968039590906
20
-429.78039146645483
10
1616.4968051176559
20
-475.78038965596375
10
1587.4968039590906
20
-475.78038965596375
10
1616.4968051176559
20
-429.78039146645483
10
1616.4968051176559
20
-475.78038965596375
0
CIRCLE
5
370
100
AcDbEntity
8
0
100
AcDbCircle
10
1601.9968045383732
20
-452.78039056120929
30
0
40
12.5
210
0
220
0
230
1
0
CIRCLE
5
371
100
AcDbEntity
8
0
100
AcDbCircle
10
1661.9968057956587
20
-482.78038976027187
30
0
40
2.2360680108197992
210
0
220
0
230
1
0
LWPOLYLINE
5
372
100
AcDbEntity
8
0
100
AcDbPolyline
90
8
70
1
43
0.0
10
1570.996804439653
20
-478.78038992418465
10
1570.996804439653
20
-426.78038870228943
42
-0.41421356237309503
10
1585.996804439653
20
-411.78038870228943
10
1737.9968071516644
20
-411.78038870228943
42
-0.41421356237309503
10
1752.9968071516644
20
-426.78038870228943
10
1752.9968071516644
20
-478.78038992418465
42
-0.41421356237309503
10
1737.9968071516644
20
-493.78038992418465
10
1585.996804439653
20
-493.78038992418465
42
-0.41421356237309503
0
LINE
5
373
100
AcDbEntity
8
0
100
AcDbLine
10
1516.4968057956585
20
-587.78038931323704
30
0
11
1516.4968057956585
21
-660.78038931323715
31
0
0
CIRCLE
5
374
100
AcDbEntity
8
0
100
AcDbCircle
10
1721.9968040913384
20
-452.78039056120929
30
0
40
12.500000000000098
210
0
220
0
230
1
0
LWPOLYLINE
5
375
100
AcDbEntity
8
0
100
AcDbPolyline
90
6
70
1
43
0.0
10
1736.4968069057952
20
-475.78038965596375
10
1707.4968012768816
20
-429.78039146645483
10
1707.4968012768816
20
-475.78038965596375
10
1736.4968069057952
20
-429.78039146645483
10
1736.4968069057952
20
-475.78038965596375
10
1707.4968012768816
20
-475.78038965596375
0
CIRCLE
5
376
100
AcDbEntity
8
0
100
AcDbCircle
10
1746.9968070622574
20
-452.78038931323704
30
0
40
2.2360680108197992
210
0
220
0
230
1
0
LINE
5
377
100
AcDbEntity
8
0
100
AcDbLine
10
1807.4968057956589
20
-587.78038931323704
30
0
11
1807.4968057956589
21
-507.78038931323704
31
0
0
CIRCLE
5
378
100
AcDbEntity
8
0
100
AcDbCircle
10
1576.99680452906
20
-452.78038931323704
30
0
40
2.2592133330360293
210
0
220
0
230
1
0
LINE
5
379
100
AcDbEntity
8
0
100
AcDbLine
10
1807.4968057956587
20
-660.78038931323715
30
0
11
1807.4968057956589
21
-587.78038931323704
31
0
0
LINE
5
380
100
AcDbEntity
8
0
100
AcDbLine
10
1525.4968057956585
20
-644.78038931323692
30
0
11
1525.4968057956585
21
-660.78038931323715
31
0
0
CIRCLE
5
381
100
AcDbEntity
8
0
100
AcDbCircle
10
1616.4968057956585
20
-615.78038931323715
30
0
40
4.000000000000032
210
0
220
0
230
1
0
LINE
5
382
100
AcDbEntity
8
0
100
AcDbLine
10
1525.4968057956585
20
-660.78038931323715
30
0
11
1516.4968057956585
21
-660.78038931323715
31
0
0
LWPOLYLINE
5
383
100
AcDbEntity
8
0
100
AcDbPolyline
90
2
70
1
43
0.0
10
1574.9968057956587
20
-630.28038931323704
42
-2.4142135623730949
10
1570.9968057956587
20
-626.28038931323727
42
-0.41421356237309503
0
CIRCLE
5
384
100
AcDbEntity
8
0
100
AcDbCircle
10
1616.4968057956585
20
-644.78038931323692
30
0
40
4.0000000000000036
210
0
220
0
230
1
0
LINE
5
385
100
AcDbEntity
8
0
100
AcDbLine
10
1807.4968057956587
20
-378.78038931323704
30
0
11
1516.4968057956585
21
-378.78038931323704
31
0
0
LINE
5
386
100
AcDbEntity
8
0
100
AcDbLine
10
1807.4968057956589
20
-507.78038931323704
30
0
11
1516.4968057956585
21
-397.78038931323704
31
0
0
LINE
5
387
100
AcDbEntity
8
0
100
AcDbLine
10
1807.4968057956589
20
-587.78038931323704
30
0
11
1516.4968057956585
21
-587.78038931323704
31
0
0
LINE
5
388
100
AcDbEntity
8
0
100
AcDbLine
10
1807.4968057956587
20
-397.78038931323704
30
0
11
1516.4968057956585
21
-507.78038931323704
31
0
0
CIRCLE
5
389
100
AcDbEntity
8
0
100
AcDbCircle
10
1707.4968057956585
20
-615.78038931323715
30
0
40
3.9999999999999858
210
0
220
0
230
1
0
LINE
5
390
100
AcDbEntity
8
0
100
AcDbLine
10
1516.4968057956585
20
-660.78038931323715
30
0
11
1807.4968057956587
21
-660.78038931323715
31
0
0
CIRCLE
5
391
100
AcDbEntity
8
0
100
AcDbCircle
10
1707.4968057956585
20
-644.78038931323692
30
0
40
3.9999999999999858
210
0
220
0
230
1
0
LINE
5
392
100
AcDbEntity
8
0
100
AcDbLine
10
1807.4968057956587
20
-378.78038931323704
30
0
11
1807.4968057956587
21
-660.78038931323715
31
0
0
LINE
5
393
100
AcDbEntity
8
0
100
AcDbLine
10
1516.4968057956585
20
-378.78038931323704
30
0
11
1516.4968057956585
21
-660.78038931323715
31
0
0
LINE
5
394
100
AcDbEntity
8
0
100
AcDbLine
10
1798.4968057956587
20
-660.78038931323715
30
0
11
1807.4968057956587
21
-660.78038931323715
31
0
0
LINE
5
395
100
AcDbEntity
8
0
100
AcDbLine
10
1798.4968057956587
20
-660.78038931323715
30
0
11
1525.4968057956585
21
-660.78038931323715
31
0
0
CIRCLE
5
396
100
AcDbEntity
8
0
100
AcDbCircle
10
1661.9968057956585
20
-630.28038931323704
30
0
40
4.0000000000000036
210
0
220
0
230
1
0
CIRCLE
5
397
100
AcDbEntity
8
0
100
AcDbCircle
10
1752.9968057956585
20
-630.28038931323704
30
0
40
4.0000000000000071
210
0
220
0
230
1
0
LINE
5
398
100
AcDbEntity
8
0
100
AcDbLine
10
725.49680579565859
20
-1278.4329648947219
30
0
11
716.49680579565847
21
-1278.4329648947219
31
0
0
LINE
5
399
100
AcDbEntity
8
0
100
AcDbLine
10
998.4968057956587
20
-1278.4329648947219
30
0
11
725.49680579565859
21
-1278.4329648947219
31
0
0
LINE
5
400
100
AcDbEntity
8
0
100
AcDbLine
10
998.4968057956587
20
-1278.4329648947219
30
0
11
1007.4968057956587
21
-1278.4329648947219
31
0
0
LINE
5
401
100
AcDbEntity
8
0
100
AcDbLine
10
1007.4968057956587
20
-978.43296489472186
30
0
11
1007.4968057956587
21
-1278.4329648947219
31
0
0
LINE
5
402
100
AcDbEntity
8
0
100
AcDbLine
10
1007.4968057956587
20
-978.43296489472186
30
0
11
716.49680579565847
21
-978.43296489472186
31
0
0
LINE
5
403
100
AcDbEntity
8
0
100
AcDbLine
10
716.49680579565847
20
-978.43296489472186
30
0
11
716.49680579565847
21
-1278.4329648947219
31
0
0
LWPOLYLINE
5
404
100
AcDbEntity
8
0
100
AcDbPolyline
90
8
70
1
43
0.0
10
1691.5008716112573
20
-1565.9591500509459
42
-0.41421356237308948
10
1661.5008716112573
20
-1535.9591500509459
10
1661.5008716112573
20
-1355.9591500509459
42
-0.41421356237308948
10
1691.5008716112573
20
-1325.9591500509459
10
1871.5008716112573
20
-1325.9591500509459
42
-0.41421356237308948
10
1901.5008716112573
20
-1355.9591500509459
10
1901.5008716112573
20
-1535.9591500509459
42
-0.41421356237308948
10
1871.5008716112573
20
-1565.9591500509459
0
CIRCLE
5
405
100
AcDbEntity
8
0
100
AcDbCircle
10
1656.000871611257
20
-1571.4591500509459
30
0
40
3.25
210
0
220
0
230
1
0
CIRCLE
5
406
100
AcDbEntity
8
0
100
AcDbCircle
10
1656.000871611257
20
-1320.4591500509457
30
0
40
3.25
210
0
220
0
230
1
0
LWPOLYLINE
5
407
100
AcDbEntity
8
0
100
AcDbPolyline
90
4
70
1
43
0.0
10
1636.000871611257
20
-1595.9591500509459
10
1636.000871611257
20
-1295.9591500509459
10
1927.0008716112575
20
-1295.9591500509459
10
1927.0008716112575
20
-1595.9591500509459
0
LWPOLYLINE
5
408
100
AcDbEntity
8
0
100
AcDbPolyline
90
8
70
1
43
0.0
10
2221.500871611257
20
-1325.9591500509459
42
-0.41421356237308948
10
2251.500871611257
20
-1355.9591500509459
10
2251.500871611257
20
-1535.9591500509459
42
-0.41421356237308948
10
2221.500871611257
20
-1565.9591500509459
10
2041.5008716112573
20
-1565.9591500509459
42
-0.41421356237308948
10
2011.5008716112573
20
-1535.9591500509459
10
2011.5008716112573
20
-1355.9591500509459
42
-0.41421356237308948
10
2041.5008716112573
20
-1325.9591500509459
0
CIRCLE
5
409
100
AcDbEntity
8
0
100
AcDbCircle
10
2257.0008716112575
20
-1571.4591500509459
30
0
40
10
210
0
220
0
230
1
0
CIRCLE
5
410
100
AcDbEntity
8
0
100
AcDbCircle
10
2257.0008716112575
20
-1320.4591500509457
30
0
40
10
210
0
220
0
230
1
0
CIRCLE
5
411
100
AcDbEntity
8
0
100
AcDbCircle
10
2006.000871611257
20
-1571.4591500509459
30
0
40
10
210
0
220
0
230
1
0
CIRCLE
5
412
100
AcDbEntity
8
0
100
AcDbCircle
10
2006.000871611257
20
-1320.4591500509457
30
0
40
10
210
0
220
0
230
1
0
LWPOLYLINE
5
413
100
AcDbEntity
8
0
100
AcDbPolyline
90
4
70
1
43
0.0
10
2277.0008716112575
20
-1595.9591500509459
10
2277.0008716112575
20
-1295.9591500509459
10
1986.000871611257
20
-1295.9591500509459
10
1986.000871611257
20
-1595.9591500509459
0
CIRCLE
5
414
100
AcDbEntity
8
0
100
AcDbCircle
10
1907.0008716112575
20
-1320.4591500509457
30
0
40
3.25
210
0
220
0
230
1
0
CIRCLE
5
415
100
AcDbEntity
8
0
100
AcDbCircle
10
1907.0008716112575
20
-1571.4591500509459
30
0
40
3.2499999999998863
210
0
220
0
230
1
0
LWPOLYLINE
5
416
100
AcDbEntity
8
0
100
AcDbPolyline
90
4
70
1
43
0.0
10
1636.000871611257
20
-1245.9591500509459
10
1927.0008716112575
20
-1245.9591500509459
10
1927.0008716112575
20
-945.95915005094582
10
1636.000871611257
20
-945.95915005094582
0
LWPOLYLINE
5
417
100
AcDbEntity
8
0
100
AcDbPolyline
90
8
70
1
43
0.0
10
1661.5008716112573
20
-1185.9591500509459
10
1661.5008716112573
20
-1005.9591500509458
42
-0.41421356237308948
10
1691.5008716112573
20
-975.95915005094582
10
1871.5008716112573
20
-975.95915005094582
42
-0.41421356237308948
10
1901.5008716112573
20
-1005.9591500509458
10
1901.5008716112573
20
-1185.9591500509459
42
-0.41421356237308948
10
1871.5008716112573
20
-1215.9591500509459
10
1691.5008716112573
20
-1215.9591500509459
42
-0.41421356237308948
0
CIRCLE
5
418
100
AcDbEntity
8
0
100
AcDbCircle
10
1907.0008716112575
20
-1221.4591500509459
30
0
40
3.2499999999998863
210
0
220
0
230
1
0
CIRCLE
5
419
100
AcDbEntity
8
0
100
AcDbCircle
10
1656.000871611257
20
-970.45915005094571
30
0
40
3.25
210
0
220
0
230
1
0
CIRCLE
5
420
100
AcDbEntity
8
0
100
AcDbCircle
10
1907.0008716112575
20
-970.45915005094571
30
0
40
3.25
210
0
220
0
230
1
0
LWPOLYLINE
5
421
100
AcDbEntity
8
0
100
AcDbPolyline
90
4
70
1
43
0.0
10
2277.0008716112575
20
-1245.9591500509459
10
2277.0008716112575
20
-945.95915005094582
10
1986.000871611257
20
-945.95915005094582
10
1986.000871611257
20
-1245.9591500509459
0
LWPOLYLINE
5
422
100
AcDbEntity
8
0
100
AcDbPolyline
90
8
70
1
43
0.0
10
2221.500871611257
20
-1215.9591500509459
10
2041.5008716112573
20
-1215.9591500509459
42
-0.41421356237308948
10
2011.5008716112573
20
-1185.9591500509459
10
2011.5008716112573
20
-1005.9591500509458
42
-0.41421356237308948
10
2041.5008716112573
20
-975.95915005094582
10
2221.500871611257
20
-975.95915005094582
42
-0.41421356237308948
10
2251.500871611257
20
-1005.9591500509458
10
2251.500871611257
20
-1185.9591500509459
42
-0.41421356237308948
0
CIRCLE
5
423
100
AcDbEntity
8
0
100
AcDbCircle
10
1656.000871611257
20
-1221.4591500509459
30
0
40
3.25
210
0
220
0
230
1
0
CIRCLE
5
424
100
AcDbEntity
8
0
100
AcDbCircle
10
2257.0008716112575
20
-970.45915005094571
30
0
40
10
210
0
220
0
230
1
0
CIRCLE
5
425
100
AcDbEntity
8
0
100
AcDbCircle
10
2006.000871611257
20
-1221.4591500509459
30
0
40
10
210
0
220
0
230
1
0
CIRCLE
5
426
100
AcDbEntity
8
0
100
AcDbCircle
10
2257.0008716112575
20
-1221.4591500509459
30
0
40
10
210
0
220
0
230
1
0
CIRCLE
5
427
100
AcDbEntity
8
0
100
AcDbCircle
10
2006.000871611257
20
-970.45915005094571
30
0
40
10
210
0
220
0
230
1
0
LINE
5
428
100
AcDbEntity
8
0
100
AcDbLine
10
716.49680579565847
20
-1317.4329648947216
30
0
11
716.49680579565847
21
-1617.4329648947219
31
0
0
CIRCLE
5
429
100
AcDbEntity
8
0
100
AcDbCircle
10
801.99680453837323
20
-1386.9329661426941
30
0
40
12.5
210
0
220
0
230
1
0
LINE
5
430
100
AcDbEntity
8
0
100
AcDbLine
10
1007.4968057956587
20
-1317.4329648947216
30
0
11
716.49680579565847
21
-1317.4329648947216
31
0
0
LINE
5
431
100
AcDbEntity
8
0
100
AcDbLine
10
1007.4968057956587
20
-1617.4329648947219
30
0
11
716.49680579565847
21
-1617.4329648947219
31
0
0
CIRCLE
5
432
100
AcDbEntity
8
0
100
AcDbCircle
10
921.99680409133839
20
-1386.9329661426941
30
0
40
12.500000000000098
210
0
220
0
230
1
0
LINE
5
433
100
AcDbEntity
8
0
100
AcDbLine
10
716.49680579565847
20
-1521.9329648947219
30
0
11
716.49680579565847
21
-1617.4329648947219
31
0
0
CIRCLE
5
434
100
AcDbEntity
8
0
100
AcDbCircle
10
946.9968070622574
20
-1386.9329648947219
30
0
40
2.2360680108197992
210
0
220
0
230
1
0
CIRCLE
5
435
100
AcDbEntity
8
0
100
AcDbCircle
10
776.99680452906
20
-1386.9329648947219
30
0
40
2.2592133330360293
210
0
220
0
230
1
0
CIRCLE
5
436
100
AcDbEntity
8
0
100
AcDbCircle
10
861.9968057956587
20
-1416.9329653417567
30
0
40
2.2360680108197992
210
0
220
0
230
1
0
LINE
5
437
100
AcDbEntity
8
0
100
AcDbLine
10
1007.4968057956587
20
-1317.4329648947216
30
0
11
1007.4968057956587
21
-1617.4329648947219
31
0
0
LINE
5
438
100
AcDbEntity
8
0
100
AcDbLine
10
1007.4968057956587
20
-1521.9329648947219
30
0
11
716.49680579565847
21
-1521.9329648947219
31
0
0
CIRCLE
5
439
100
AcDbEntity
8
0
100
AcDbCircle
10
861.9968057956587
20
-1356.932964447687
30
0
40
2.2360680108197992
210
0
220
0
230
1
0
LINE
5
440
100
AcDbEntity
8
0
100
AcDbLine
10
716.49680579565847
20
-1278.4329648947219
30
0
11
736.49680579565847
21
-1278.4329648947219
31
0
0
LINE
5
441
100
AcDbEntity
8
0
100
AcDbLine
10
736.49680579565847
20
-1278.4329648947219
30
0
11
736.49680579565847
21
-1258.4329648947219
31
0
0
LINE
5
442
100
AcDbEntity
8
0
100
AcDbLine
10
736.49680579565847
20
-1258.4329648947219
30
0
11
716.49680579565847
21
-1258.4329648947219
31
0
0
LINE
5
443
100
AcDbEntity
8
0
100
AcDbLine
10
716.49680579565847
20
-1258.4329648947219
30
0
11
716.49680579565847
21
-1278.4329648947219
31
0
0
LINE
5
444
100
AcDbEntity
8
0
100
AcDbLine
10
1007.4968057956587
20
-1278.4329648947219
30
0
11
987.4968057956587
21
-1278.4329648947219
31
0
0
LINE
5
445
100
AcDbEntity
8
0
100
AcDbLine
10
987.4968057956587
20
-1278.4329648947219
30
0
11
987.4968057956587
21
-1258.4329648947219
31
0
0
LINE
5
446
100
AcDbEntity
8
0
100
AcDbLine
10
987.4968057956587
20
-1258.4329648947219
30
0
11
1007.4968057956587
21
-1258.4329648947219
31
0
0
LINE
5
447
100
AcDbEntity
8
0
100
AcDbLine
10
1007.4968057956587
20
-1258.4329648947219
30
0
11
1007.4968057956587
21
-1278.4329648947219
31
0
0
LINE
5
448
100
AcDbEntity
8
0
100
AcDbLine
10
1007.4968057956587
20
-978.43296489472186
30
0
11
987.4968057956587
21
-978.43296489472186
31
0
0
LINE
5
449
100
AcDbEntity
8
0
100
AcDbLine
10
987.4968057956587
20
-978.43296489472186
30
0
11
987.4968057956587
21
-998.43296489472186
31
0
0
LINE
5
450
100
AcDbEntity
8
0
100
AcDbLine
10
987.4968057956587
20
-998.43296489472186
30
0
11
1007.4968057956587
21
-998.43296489472186
31
0
0
LINE
5
451
100
AcDbEntity
8
0
100
AcDbLine
10
1007.4968057956587
20
-998.43296489472186
30
0
11
1007.4968057956587
21
-978.43296489472186
31
0
0
LINE
5
452
100
AcDbEntity
8
0
100
AcDbLine
10
716.49680579565847
20
-978.43296489472186
30
0
11
736.49680579565847
21
-978.43296489472186
31
0
0
LINE
5
453
100
AcDbEntity
8
0
100
AcDbLine
10
736.49680579565847
20
-978.43296489472186
30
0
11
736.49680579565847
21
-998.43296489472186
31
0
0
LINE
5
454
100
AcDbEntity
8
0
100
AcDbLine
10
736.49680579565847
20
-998.43296489472186
30
0
11
716.49680579565847
21
-998.43296489472186
31
0
0
LINE
5
455
100
AcDbEntity
8
0
100
AcDbLine
10
716.49680579565847
20
-998.43296489472186
30
0
11
716.49680579565847
21
-978.43296489472186
31
0
0
CIRCLE
5
456
100
AcDbEntity
8
0
100
AcDbCircle
10
736.49680579565847
20
-998.43296489472186
30
0
40
2.4999999999999085
210
0
220
0
230
1
0
CIRCLE
5
457
100
AcDbEntity
8
0
100
AcDbCircle
10
736.49680579565847
20
-1258.4329648947219
30
0
40
2.5000000000000129
210
0
220
0
230
1
0
CIRCLE
5
458
100
AcDbEntity
8
0
100
AcDbCircle
10
987.4968057956587
20
-1258.4329648947219
30
0
40
2.5000000000000129
210
0
220
0
230
1
0
CIRCLE
5
459
100
AcDbEntity
8
0
100
AcDbCircle
10
987.4968057956587
20
-998.43296489472186
30
0
40
2.5
210
0
220
0
230
1
0
CIRCLE
5
460
100
AcDbEntity
8
0
100
AcDbCircle
10
1086.4968057956585
20
-998.43296489472186
30
0
40
2.4999999999999085
210
0
220
0
230
1
0
LINE
5
461
100
AcDbEntity
8
0
100
AcDbLine
10
1086.4968057956585
20
-1278.4329648947219
30
0
11
1086.4968057956585
21
-1258.4329648947219
31
0
0
LINE
5
462
100
AcDbEntity
8
0
100
AcDbLine
10
1066.4968057956585
20
-978.43296489472186
30
0
11
1066.4968057956585
21
-1278.4329648947219
31
0
0
LINE
5
463
100
AcDbEntity
8
0
100
AcDbLine
10
1066.4968057956585
20
-998.43296489472186
30
0
11
1066.4968057956585
21
-978.43296489472186
31
0
0
LINE
5
464
100
AcDbEntity
8
0
100
AcDbLine
10
1337.4968057956587
20
-998.43296489472186
30
0
11
1357.4968057956587
21
-998.43296489472186
31
0
0
LINE
5
465
100
AcDbEntity
8
0
100
AcDbLine
10
1337.4968057956587
20
-1258.4329648947219
30
0
11
1357.4968057956587
21
-1258.4329648947219
31
0
0
LINE
5
466
100
AcDbEntity
8
0
100
AcDbLine
10
1066.4968057956585
20
-1258.4329648947219
30
0
11
1066.4968057956585
21
-1278.4329648947219
31
0
0
LINE
5
467
100
AcDbEntity
8
0
100
AcDbLine
10
1086.4968057956585
20
-1258.4329648947219
30
0
11
1066.4968057956585
21
-1258.4329648947219
31
0
0
CIRCLE
5
468
100
AcDbEntity
8
0
100
AcDbCircle
10
1086.4968057956585
20
-1258.4329648947219
30
0
40
2.5000000000000129
210
0
220
0
230
1
0
LINE
5
469
100
AcDbEntity
8
0
100
AcDbLine
10
1066.4968057956585
20
-1278.4329648947219
30
0
11
1086.4968057956585
21
-1278.4329648947219
31
0
0
LINE
5
470
100
AcDbEntity
8
0
100
AcDbLine
10
1348.4968057956587
20
-1278.4329648947219
30
0
11
1357.4968057956587
21
-1278.4329648947219
31
0
0
LINE
5
471
100
AcDbEntity
8
0
100
AcDbLine
10
1086.4968057956585
20
-998.43296489472186
30
0
11
1066.4968057956585
21
-998.43296489472186
31
0
0
LINE
5
472
100
AcDbEntity
8
0
100
AcDbLine
10
1066.4968057956585
20
-978.43296489472186
30
0
11
1086.4968057956585
21
-978.43296489472186
31
0
0
LINE
5
473
100
AcDbEntity
8
0
100
AcDbLine
10
1357.4968057956587
20
-1258.4329648947219
30
0
11
1357.4968057956587
21
-1278.4329648947219
31
0
0
LINE
5
474
100
AcDbEntity
8
0
100
AcDbLine
10
1357.4968057956587
20
-998.43296489472186
30
0
11
1357.4968057956587
21
-978.43296489472186
31
0
0
LINE
5
475
100
AcDbEntity
8
0
100
AcDbLine
10
1337.4968057956587
20
-978.43296489472186
30
0
11
1337.4968057956587
21
-998.43296489472186
31
0
0
LINE
5
476
100
AcDbEntity
8
0
100
AcDbLine
10
1348.4968057956587
20
-1278.4329648947219
30
0
11
1075.4968057956585
21
-1278.4329648947219
31
0
0
LINE
5
477
100
AcDbEntity
8
0
100
AcDbLine
10
1086.4968057956585
20
-978.43296489472186
30
0
11
1086.4968057956585
21
-998.43296489472186
31
0
0
LINE
5
478
100
AcDbEntity
8
0
100
AcDbLine
10
1357.4968057956587
20
-978.43296489472186
30
0
11
1337.4968057956587
21
-978.43296489472186
31
0
0
LINE
5
479
100
AcDbEntity
8
0
100
AcDbLine
10
1357.4968057956587
20
-978.43296489472186
30
0
11
1066.4968057956585
21
-978.43296489472186
31
0
0
LINE
5
480
100
AcDbEntity
8
0
100
AcDbLine
10
1357.4968057956587
20
-978.43296489472186
30
0
11
1357.4968057956587
21
-1278.4329648947219
31
0
0
LINE
5
481
100
AcDbEntity
8
0
100
AcDbLine
10
1357.4968057956587
20
-1278.4329648947219
30
0
11
1337.4968057956587
21
-1278.4329648947219
31
0
0
LINE
5
482
100
AcDbEntity
8
0
100
AcDbLine
10
1075.4968057956585
20
-1278.4329648947219
30
0
11
1066.4968057956585
21
-1278.4329648947219
31
0
0
CIRCLE
5
483
100
AcDbEntity
8
0
100
AcDbCircle
10
1337.4968057956587
20
-1258.4329648947219
30
0
40
2.5000000000000129
210
0
220
0
230
1
0
CIRCLE
5
484
100
AcDbEntity
8
0
100
AcDbCircle
10
1337.4968057956587
20
-998.43296489472186
30
0
40
2.5
210
0
220
0
230
1
0
LINE
5
485
100
AcDbEntity
8
0
100
AcDbLine
10
1337.4968057956587
20
-1278.4329648947219
30
0
11
1337.4968057956587
21
-1258.4329648947219
31
0
0
LINE
5
486
100
AcDbEntity
8
0
100
AcDbLine
10
0
20
-1260
30
0
11
166
21
-1260
31
0
0
LINE
5
487
100
AcDbEntity
8
0
100
AcDbLine
10
166
20
-1260
30
0
11
166
21
-1297.5
31
0
0
LINE
5
488
100
AcDbEntity
8
0
100
AcDbLine
10
166
20
-1297.5
30
0
11
0
21
-1297.5
31
0
0
LINE
5
489
100
AcDbEntity
8
0
100
AcDbLine
10
0
20
-1297.5
30
0
11
0
21
-1260
31
0
0
LINE
5
490
100
AcDbEntity
8
0
100
AcDbLine
10
664
20
-1260
30
0
11
498.00000000000006
21
-1260
31
0
0
LINE
5
491
100
AcDbEntity
8
0
100
AcDbLine
10
498.00000000000006
20
-1260
30
0
11
498.00000000000006
21
-1297.5
31
0
0
LINE
5
492
100
AcDbEntity
8
0
100
AcDbLine
10
498.00000000000006
20
-1297.5
30
0
11
664
21
-1297.5
31
0
0
LINE
5
493
100
AcDbEntity
8
0
100
AcDbLine
10
664
20
-1297.5
30
0
11
664
21
-1260
31
0
0
CIRCLE
5
494
100
AcDbEntity
8
0
100
AcDbCircle
10
456.32981609670168
20
-1576.2078986442648
30
0
40
4.000000000000032
210
0
220
0
230
1
0
CIRCLE
5
495
100
AcDbEntity
8
0
100
AcDbCircle
10
547.32981609670173
20
-1605.2078986442646
30
0
40
3.9999999999999858
210
0
220
0
230
1
0
LINE
5
496
100
AcDbEntity
8
0
100
AcDbLine
10
592.82981609670173
20
-1576.2078986442648
30
0
11
592.82981609670173
21
-1605.2078986442646
31
0
0
CIRCLE
5
497
100
AcDbEntity
8
0
100
AcDbCircle
10
592.82981609670173
20
-1590.7078986442648
30
0
40
4.0000000000000071
210
0
220
0
230
1
0
CIRCLE
5
498
100
AcDbEntity
8
0
100
AcDbCircle
10
547.32981609670173
20
-1576.2078986442648
30
0
40
3.9999999999999858
210
0
220
0
230
1
0
LINE
5
499
100
AcDbEntity
8
0
100
AcDbLine
10
410.82981609670173
20
-1576.2078986442648
30
0
11
592.82981609670173
21
-1576.2078986442648
31
0
0
LINE
5
500
100
AcDbEntity
8
0
100
AcDbLine
10
365.32981609670173
20
-1605.2078986442646
30
0
11
365.32981609670173
21
-1627.2078986442646
31
0
0
LINE
5
501
100
AcDbEntity
8
0
100
AcDbLine
10
410.82981609670173
20
-1605.2078986442646
30
0
11
365.32981609670173
21
-1605.2078986442646
31
0
0
LINE
5
502
100
AcDbEntity
8
0
100
AcDbLine
10
410.82981609670173
20
-1627.2078986442646
30
0
11
410.82981609670173
21
-1605.2078986442646
31
0
0
LINE
5
503
100
AcDbEntity
8
0
100
AcDbLine
10
410.82981609670173
20
-1605.2078986442646
30
0
11
410.82981609670173
21
-1576.2078986442648
31
0
0
CIRCLE
5
504
100
AcDbEntity
8
0
100
AcDbCircle
10
410.82981609670173
20
-1590.7078986442648
30
0
40
3.9999999999999836
210
0
220
0
230
1
0
CIRCLE
5
505
100
AcDbEntity
8
0
100
AcDbCircle
10
501.82981609670162
20
-1590.7078986442648
30
0
40
4.0000000000000036
210
0
220
0
230
1
0
LINE
5
506
100
AcDbEntity
8
0
100
AcDbLine
10
365.32981609670173
20
-1627.2078986442646
30
0
11
410.82981609670173
21
-1627.2078986442646
31
0
0
CIRCLE
5
507
100
AcDbEntity
8
0
100
AcDbCircle
10
456.32981609670168
20
-1605.2078986442646
30
0
40
4.0000000000000036
210
0
220
0
230
1
0
LINE
5
508
100
AcDbEntity
8
0
100
AcDbLine
10
592.82981609670173
20
-1605.2078986442646
30
0
11
410.82981609670173
21
-1605.2078986442646
31
0
0
LINE
5
509
100
AcDbEntity
8
0
100
AcDbLine
10
50.670426479788411
20
-1959.5477899296654
30
0
11
50.670426479788411
21
-1981.5477899296652
31
0
0
LINE
5
510
100
AcDbEntity
8
0
100
AcDbLine
10
278.17042647978843
20
-1959.5477899296654
30
0
11
96.170426479788375
21
-1959.5477899296654
31
0
0
LINE
5
511
100
AcDbEntity
8
0
100
AcDbLine
10
96.170426479788375
20
-1981.5477899296652
30
0
11
96.170426479788375
21
-1959.5477899296654
31
0
0
LINE
5
512
100
AcDbEntity
8
0
100
AcDbLine
10
96.170426479788375
20
-1930.5477899296657
30
0
11
278.17042647978843
21
-1930.5477899296657
31
0
0
LINE
5
513
100
AcDbEntity
8
0
100
AcDbLine
10
278.17042647978843
20
-1930.5477899296657
30
0
11
323.67042647978838
21
-1930.5477899296657
31
0
0
CIRCLE
5
514
100
AcDbEntity
8
0
100
AcDbCircle
10
232.67042647978843
20
-1959.5477899296654
30
0
40
3.9999999999999858
210
0
220
0
230
1
0
LINE
5
515
100
AcDbEntity
8
0
100
AcDbLine
10
278.17042647978843
20
-1930.5477899296657
30
0
11
278.17042647978843
21
-1959.5477899296654
31
0
0
CIRCLE
5
516
100
AcDbEntity
8
0
100
AcDbCircle
10
278.17042647978843
20
-1945.0477899296654
30
0
40
4.0000000000000071
210
0
220
0
230
1
0
LINE
5
517
100
AcDbEntity
8
0
100
AcDbLine
10
323.67042647978838
20
-1930.5477899296657
30
0
11
323.67042647978838
21
-1904.0477899296657
31
0
0
LINE
5
518
100
AcDbEntity
8
0
100
AcDbLine
10
278.17042647978843
20
-1904.0477899296657
30
0
11
278.17042647978843
21
-1930.5477899296657
31
0
0
CIRCLE
5
519
100
AcDbEntity
8
0
100
AcDbCircle
10
232.67042647978843
20
-1930.5477899296657
30
0
40
3.9999999999999858
210
0
220
0
230
1
0
LINE
5
520
100
AcDbEntity
8
0
100
AcDbLine
10
323.67042647978838
20
-1904.0477899296657
30
0
11
278.17042647978843
21
-1904.0477899296657
31
0
0
LINE
5
521
100
AcDbEntity
8
0
100
AcDbLine
10
96.170426479788375
20
-1959.5477899296654
30
0
11
50.670426479788411
21
-1959.5477899296654
31
0
0
LINE
5
522
100
AcDbEntity
8
0
100
AcDbLine
10
96.170426479788375
20
-1959.5477899296654
30
0
11
96.170426479788375
21
-1930.5477899296657
31
0
0
CIRCLE
5
523
100
AcDbEntity
8
0
100
AcDbCircle
10
141.67042647978835
20
-1959.5477899296654
30
0
40
4.0000000000000036
210
0
220
0
230
1
0
CIRCLE
5
524
100
AcDbEntity
8
0
100
AcDbCircle
10
96.170426479788375
20
-1945.0477899296654
30
0
40
3.9999999999999836
210
0
220
0
230
1
0
LINE
5
525
100
AcDbEntity
8
0
100
AcDbLine
10
50.670426479788411
20
-1981.5477899296652
30
0
11
96.170426479788375
21
-1981.5477899296652
31
0
0
CIRCLE
5
526
100
AcDbEntity
8
0
100
AcDbCircle
10
141.67042647978835
20
-1930.5477899296657
30
0
40
4.000000000000032
210
0
220
0
230
1
0
CIRCLE
5
527
100
AcDbEntity
8
0
100
AcDbCircle
10
187.17042647978832
20
-1945.0477899296654
30
0
40
4.0000000000000036
210
0
220
0
230
1
0
LINE
5
528
100
AcDbEntity
8
0
100
AcDbLine
10
592.82981609670173
20
-1576.2078986442648
30
0
11
638.32981609670173
21
-1576.2078986442648
31
0
0
LINE
5
529
100
AcDbEntity
8
0
100
AcDbLine
10
638.32981609670173
20
-1576.2078986442648
30
0
11
638.32981609670173
21
-1554.207898644265
31
0
0
LINE
5
530
100
AcDbEntity
8
0
100
AcDbLine
10
638.32981609670173
20
-1554.207898644265
30
0
11
592.82981609670173
21
-1554.207898644265
31
0
0
LINE
5
531
100
AcDbEntity
8
0
100
AcDbLine
10
592.82981609670173
20
-1554.207898644265
30
0
11
592.82981609670173
21
-1576.2078986442648
31
0
0
LWPOLYLINE
5
532
100
AcDbEntity
8
0
100
AcDbPolyline
90
8
70
1
43
0.0
10
481.22981609670171
20
-1571.2078986442648
10
521.82981609670173
20
-1571.2078986442648
42
-0.41421356237310336
10
524.32981609670173
20
-1573.7078986442648
10
524.32981609670173
20
-1578.7078986442648
42
-0.41421356237309503
10
521.82981609670173
20
-1581.2078986442648
10
481.82981609670162
20
-1581.2078986442648
42
-0.41421356237309503
10
479.32981609670173
20
-1578.7078986442648
10
479.32981609670173
20
-1573.1078986442649
42
-0.41421356237309503
0
LINE
5
533
100
AcDbEntity
8
0
100
AcDbLine
10
365.32981609670173
20
-1554.207898644265
30
0
11
638.32981609670173
21
-1554.207898644265
31
0
0
LINE
5
534
100
AcDbEntity
8
0
100
AcDbLine
10
638.32981609670173
20
-1554.207898644265
30
0
11
638.32981609670173
21
-1627.207898644265
31
0
0
LINE
5
535
100
AcDbEntity
8
0
100
AcDbLine
10
638.32981609670173
20
-1627.207898644265
30
0
11
365.32981609670173
21
-1627.207898644265
31
0
0
LINE
5
536
100
AcDbEntity
8
0
100
AcDbLine
10
365.32981609670173
20
-1627.207898644265
30
0
11
365.32981609670173
21
-1554.207898644265
31
0
0
LWPOLYLINE
5
537
100
AcDbEntity
8
0
100
AcDbPolyline
90
8
70
1
43
0.0
10
881.9968057956587
20
-1543.4329648947221
42
-0.41421356237311169
10
884.4968057956587
20
-1545.9329648947219
10
884.49680579565882
20
-1550.9329648947219
42
-0.41421356237309503
10
881.99680579565882
20
-1553.4329648947219
10
841.9968057956587
20
-1553.4329648947219
42
-0.41421356237309503
10
839.4968057956587
20
-1550.9329648947219
10
839.4968057956587
20
-1545.3329648947217
42
-0.41421356237309503
10
841.39680579565857
20
-1543.4329648947219
0
LINE
5
538
100
AcDbEntity
8
0
100
AcDbLine
10
770.9968057956587
20
-1577.4329648947216
30
0
11
770.9968057956587
21
-1548.4329648947219
31
0
0
CIRCLE
5
539
100
AcDbEntity
8
0
100
AcDbCircle
10
816.4968057956587
20
-1577.4329648947216
30
0
40
4.0000000000000036
210
0
220
0
230
1
0
CIRCLE
5
540
100
AcDbEntity
8
0
100
AcDbCircle
10
861.9968057956587
20
-1562.9329648947216
30
0
40
4.0000000000000036
210
0
220
0
230
1
0
CIRCLE
5
541
100
AcDbEntity
8
0
100
AcDbCircle
10
816.4968057956587
20
-1548.4329648947219
30
0
40
4.000000000000032
210
0
220
0
230
1
0
LINE
5
542
100
AcDbEntity
8
0
100
AcDbLine
10
952.9968057956587
20
-1577.4329648947216
30
0
11
770.9968057956587
21
-1577.4329648947216
31
0
0
LINE
5
543
100
AcDbEntity
8
0
100
AcDbLine
10
770.9968057956587
20
-1548.4329648947219
30
0
11
952.9968057956587
21
-1548.4329648947219
31
0
0
CIRCLE
5
544
100
AcDbEntity
8
0
100
AcDbCircle
10
770.9968057956587
20
-1562.9329648947216
30
0
40
3.9999999999999836
210
0
220
0
230
1
0
CIRCLE
5
545
100
AcDbEntity
8
0
100
AcDbCircle
10
952.9968057956587
20
-1562.9329648947216
30
0
40
4.0000000000000071
210
0
220
0
230
1
0
CIRCLE
5
546
100
AcDbEntity
8
0
100
AcDbCircle
10
907.4968057956587
20
-1577.4329648947216
30
0
40
3.9999999999999858
210
0
220
0
230
1
0
CIRCLE
5
547
100
AcDbEntity
8
0
100
AcDbCircle
10
907.4968057956587
20
-1548.4329648947219
30
0
40
3.9999999999999858
210
0
220
0
230
1
0
LINE
5
548
100
AcDbEntity
8
0
100
AcDbLine
10
952.9968057956587
20
-1548.4329648947219
30
0
11
952.9968057956587
21
-1577.4329648947216
31
0
0
LINE
5
549
100
AcDbEntity
8
0
100
AcDbLine
10
952.9968057956587
20
-1548.4329648947219
30
0
11
1007.4968057956587
21
-1548.4329648947219
31
0
0
LINE
5
550
100
AcDbEntity
8
0
100
AcDbLine
10
1007.4968057956587
20
-1548.4329648947219
30
0
11
1007.4968057956587
21
-1521.9329648947219
31
0
0
LINE
5
551
100
AcDbEntity
8
0
100
AcDbLine
10
1007.4968057956587
20
-1521.9329648947219
30
0
11
952.9968057956587
21
-1521.9329648947219
31
0
0
LINE
5
552
100
AcDbEntity
8
0
100
AcDbLine
10
952.9968057956587
20
-1521.9329648947219
30
0
11
952.9968057956587
21
-1548.4329648947219
31
0
0
LINE
5
553
100
AcDbEntity
8
0
100
AcDbLine
10
770.9968057956587
20
-1577.4329648947216
30
0
11
716.4968057956587
21
-1577.4329648947216
31
0
0
LINE
5
554
100
AcDbEntity
8
0
100
AcDbLine
10
716.4968057956587
20
-1577.4329648947216
30
0
11
716.4968057956587
21
-1594.9329648947216
31
0
0
LINE
5
555
100
AcDbEntity
8
0
100
AcDbLine
10
716.4968057956587
20
-1594.9329648947216
30
0
11
770.9968057956587
21
-1594.9329648947216
31
0
0
LINE
5
556
100
AcDbEntity
8
0
100
AcDbLine
10
770.9968057956587
20
-1594.9329648947216
30
0
11
770.9968057956587
21
-1577.4329648947216
31
0
0
CIRCLE
5
557
100
AcDbEntity
8
0
100
AcDbCircle
10
1302.9968057956585
20
-1562.9329648947216
30
0
40
4.0000000000000071
210
0
220
0
230
1
0
CIRCLE
5
558
100
AcDbEntity
8
0
100
AcDbCircle
10
1257.4968057956587
20
-1548.4329648947219
30
0
40
3.9999999999999858
210
0
220
0
230
1
0
LINE
5
559
100
AcDbEntity
8
0
100
AcDbLine
10
1357.4968057956585
20
-1521.9329648947219
30
0
11
1302.9968057956585
21
-1521.9329648947219
31
0
0
LWPOLYLINE
5
560
100
AcDbEntity
8
0
100
AcDbPolyline
90
8
70
1
43
0.0
10
1234.4968057956587
20
-1550.9329648947219
42
-0.41421356237309503
10
1231.9968057956587
20
-1553.4329648947219
10
1191.9968057956587
20
-1553.4329648947219
42
-0.41421356237309503
10
1189.4968057956587
20
-1550.9329648947219
10
1189.4968057956587
20
-1545.3329648947217
42
-0.41421356237309503
10
1191.3968057956586
20
-1543.4329648947219
10
1231.9968057956587
20
-1543.4329648947221
42
-0.41421356237311169
10
1234.4968057956587
20
-1545.9329648947219
0
LINE
5
561
100
AcDbEntity
8
0
100
AcDbLine
10
1120.9968057956587
20
-1577.4329648947216
30
0
11
1120.9968057956587
21
-1548.4329648947219
31
0
0
LINE
5
562
100
AcDbEntity
8
0
100
AcDbLine
10
1120.9968057956587
20
-1603.9329648947216
30
0
11
1120.9968057956587
21
-1577.4329648947216
31
0
0
CIRCLE
5
563
100
AcDbEntity
8
0
100
AcDbCircle
10
1211.9968057956587
20
-1562.9329648947216
30
0
40
4.0000000000000036
210
0
220
0
230
1
0
LINE
5
564
100
AcDbEntity
8
0
100
AcDbLine
10
1302.9968057956585
20
-1521.9329648947219
30
0
11
1302.9968057956585
21
-1548.4329648947219
31
0
0
LINE
5
565
100
AcDbEntity
8
0
100
AcDbLine
10
1302.9968057956585
20
-1548.4329648947219
30
0
11
1302.9968057956585
21
-1577.4329648947216
31
0
0
CIRCLE
5
566
100
AcDbEntity
8
0
100
AcDbCircle
10
1257.4968057956587
20
-1577.4329648947216
30
0
40
3.9999999999999858
210
0
220
0
230
1
0
LINE
5
567
100
AcDbEntity
8
0
100
AcDbLine
10
1357.4968057956587
20
-1317.4329648947216
30
0
11
1357.4968057956587
21
-1617.4329648947219
31
0
0
LINE
5
568
100
AcDbEntity
8
0
100
AcDbLine
10
1302.9968057956585
20
-1548.4329648947219
30
0
11
1357.4968057956585
21
-1548.4329648947219
31
0
0
LINE
5
569
100
AcDbEntity
8
0
100
AcDbLine
10
1357.4968057956585
20
-1548.4329648947219
30
0
11
1357.4968057956585
21
-1521.9329648947219
31
0
0
CIRCLE
5
570
100
AcDbEntity
8
0
100
AcDbCircle
10
1120.9968057956587
20
-1562.9329648947216
30
0
40
3.9999999999999836
210
0
220
0
230
1
0
CIRCLE
5
571
100
AcDbEntity
8
0
100
AcDbCircle
10
1211.9968057956587
20
-1356.932964447687
30
0
40
2.2360680108197992
210
0
220
0
230
1
0
CIRCLE
5
572
100
AcDbEntity
8
0
100
AcDbCircle
10
1166.4968057956587
20
-1548.4329648947219
30
0
40
4.000000000000032
210
0
220
0
230
1
0
CIRCLE
5
573
100
AcDbEntity
8
0
100
AcDbCircle
10
1166.4968057956587
20
-1577.4329648947216
30
0
40
4.0000000000000036
210
0
220
0
230
1
0
CIRCLE
5
574
100
AcDbEntity
8
0
100
AcDbCircle
10
1211.9968057956587
20
-1416.9329653417567
30
0
40
2.2360680108197992
210
0
220
0
230
1
0
CIRCLE
5
575
100
AcDbEntity
8
0
100
AcDbCircle
10
1126.99680452906
20
-1386.9329648947219
30
0
40
2.2592133330360293
210
0
220
0
230
1
0
CIRCLE
5
576
100
AcDbEntity
8
0
100
AcDbCircle
10
1151.9968045383732
20
-1386.9329661426941
30
0
40
12.5
210
0
220
0
230
1
0
LINE
5
577
100
AcDbEntity
8
0
100
AcDbLine
10
1357.4968057956587
20
-1617.4329648947219
30
0
11
1066.4968057956585
21
-1617.4329648947219
31
0
0
LINE
5
578
100
AcDbEntity
8
0
100
AcDbLine
10
1120.9968057956587
20
-1577.4329648947216
30
0
11
1066.4968057956587
21
-1577.4329648947216
31
0
0
LINE
5
579
100
AcDbEntity
8
0
100
AcDbLine
10
1066.4968057956587
20
-1603.9329648947216
30
0
11
1120.9968057956587
21
-1603.9329648947216
31
0
0
LINE
5
580
100
AcDbEntity
8
0
100
AcDbLine
10
1066.4968057956585
20
-1521.9329648947219
30
0
11
1066.4968057956585
21
-1617.4329648947219
31
0
0
LINE
5
581
100
AcDbEntity
8
0
100
AcDbLine
10
1066.4968057956587
20
-1577.4329648947216
30
0
11
1066.4968057956587
21
-1603.9329648947216
31
0
0
LINE
5
582
100
AcDbEntity
8
0
100
AcDbLine
10
1066.4968057956585
20
-1317.4329648947216
30
0
11
1066.4968057956585
21
-1617.4329648947219
31
0
0
LINE
5
583
100
AcDbEntity
8
0
100
AcDbLine
10
1302.9968057956585
20
-1577.4329648947216
30
0
11
1120.9968057956587
21
-1577.4329648947216
31
0
0
LINE
5
584
100
AcDbEntity
8
0
100
AcDbLine
10
1357.4968057956587
20
-1317.4329648947216
30
0
11
1066.4968057956585
21
-1317.4329648947216
31
0
0
LINE
5
585
100
AcDbEntity
8
0
100
AcDbLine
10
1120.9968057956587
20
-1548.4329648947219
30
0
11
1302.9968057956585
21
-1548.4329648947219
31
0
0
LINE
5
586
100
AcDbEntity
8
0
100
AcDbLine
10
1357.4968057956585
20
-1521.9329648947219
30
0
11
1066.4968057956585
21
-1521.9329648947219
31
0
0
CIRCLE
5
587
100
AcDbEntity
8
0
100
AcDbCircle
10
1296.9968070622574
20
-1386.9329648947219
30
0
40
2.2360680108197992
210
0
220
0
230
1
0
CIRCLE
5
588
100
AcDbEntity
8
0
100
AcDbCircle
10
1271.9968040913384
20
-1386.9329661426941
30
0
40
12.500000000000098
210
0
220
0
230
1
0
LINE
5
589
100
AcDbEntity
8
0
100
AcDbLine
10
278.32981609670173
20
-1554.207898644265
30
0
11
232.82981609670173
21
-1554.207898644265
31
0
0
LWPOLYLINE
5
590
100
AcDbEntity
8
0
100
AcDbPolyline
90
8
70
1
43
0.0
10
161.82981609670179
20
-1581.2078986442648
10
121.82981609670165
20
-1581.2078986442648
42
-0.41421356237309503
10
119.32981609670172
20
-1578.7078986442648
10
119.32981609670172
20
-1573.1078986442649
42
-0.41421356237309503
10
121.2298160967017
20
-1571.2078986442648
10
161.82981609670173
20
-1571.2078986442648
42
-0.41421356237310336
10
164.32981609670173
20
-1573.7078986442648
10
164.32981609670179
20
-1578.7078986442648
42
-0.41421356237309503
0
LINE
5
591
100
AcDbEntity
8
0
100
AcDbLine
10
50.829816096701705
20
-1576.2078986442648
30
0
11
232.82981609670173
21
-1576.2078986442648
31
0
0
LINE
5
592
100
AcDbEntity
8
0
100
AcDbLine
10
278.32981609670173
20
-1554.207898644265
30
0
11
278.32981609670173
21
-1627.207898644265
31
0
0
LINE
5
593
100
AcDbEntity
8
0
100
AcDbLine
10
232.82981609670173
20
-1576.2078986442648
30
0
11
232.82981609670173
21
-1605.2078986442646
31
0
0
LINE
5
594
100
AcDbEntity
8
0
100
AcDbLine
10
278.32981609670173
20
-1576.2078986442648
30
0
11
278.32981609670173
21
-1554.207898644265
31
0
0
LINE
5
595
100
AcDbEntity
8
0
100
AcDbLine
10
232.82981609670173
20
-1554.207898644265
30
0
11
232.82981609670173
21
-1576.2078986442648
31
0
0
LINE
5
596
100
AcDbEntity
8
0
100
AcDbLine
10
232.82981609670173
20
-1576.2078986442648
30
0
11
278.32981609670173
21
-1576.2078986442648
31
0
0
CIRCLE
5
597
100
AcDbEntity
8
0
100
AcDbCircle
10
187.32981609670176
20
-1576.2078986442648
30
0
40
3.9999999999999858
210
0
220
0
230
1
0
CIRCLE
5
598
100
AcDbEntity
8
0
100
AcDbCircle
10
187.32981609670176
20
-1605.2078986442646
30
0
40
3.9999999999999858
210
0
220
0
230
1
0
CIRCLE
5
599
100
AcDbEntity
8
0
100
AcDbCircle
10
141.82981609670165
20
-1590.7078986442648
30
0
40
4.0000000000000036
210
0
220
0
230
1
0
LINE
5
600
100
AcDbEntity
8
0
100
AcDbLine
10
278.32981609670173
20
-1627.207898644265
30
0
11
5.3298160967017338
21
-1627.207898644265
31
0
0
CIRCLE
5
601
100
AcDbEntity
8
0
100
AcDbCircle
10
96.329816096701677
20
-1576.2078986442648
30
0
40
4.000000000000032
210
0
220
0
230
1
0
LINE
5
602
100
AcDbEntity
8
0
100
AcDbLine
10
232.82981609670173
20
-1605.2078986442646
30
0
11
50.829816096701705
21
-1605.2078986442646
31
0
0
CIRCLE
5
603
100
AcDbEntity
8
0
100
AcDbCircle
10
232.82981609670173
20
-1590.7078986442648
30
0
40
4.0000000000000071
210
0
220
0
230
1
0
LINE
5
604
100
AcDbEntity
8
0
100
AcDbLine
10
50.829816096701705
20
-1605.2078986442646
30
0
11
5.3298160967017338
21
-1605.2078986442646
31
0
0
LINE
5
605
100
AcDbEntity
8
0
100
AcDbLine
10
5.3298160967017338
20
-1627.207898644265
30
0
11
5.3298160967017338
21
-1554.207898644265
31
0
0
CIRCLE
5
606
100
AcDbEntity
8
0
100
AcDbCircle
10
50.829816096701705
20
-1590.7078986442648
30
0
40
3.9999999999999836
210
0
220
0
230
1
0
LINE
5
607
100
AcDbEntity
8
0
100
AcDbLine
10
50.829816096701705
20
-1627.2078986442646
30
0
11
50.829816096701705
21
-1605.2078986442646
31
0
0
LINE
5
608
100
AcDbEntity
8
0
100
AcDbLine
10
5.3298160967017338
20
-1627.2078986442646
30
0
11
50.829816096701705
21
-1627.2078986442646
31
0
0
LINE
5
609
100
AcDbEntity
8
0
100
AcDbLine
10
50.829816096701705
20
-1605.2078986442646
30
0
11
50.829816096701705
21
-1576.2078986442648
31
0
0
CIRCLE
5
610
100
AcDbEntity
8
0
100
AcDbCircle
10
96.329816096701677
20
-1605.2078986442646
30
0
40
4.0000000000000036
210
0
220
0
230
1
0
LINE
5
611
100
AcDbEntity
8
0
100
AcDbLine
10
5.3298160967017338
20
-1554.207898644265
30
0
11
278.32981609670173
21
-1554.207898644265
31
0
0
LINE
5
612
100
AcDbEntity
8
0
100
AcDbLine
10
5.3298160967017338
20
-1605.2078986442646
30
0
11
5.3298160967017338
21
-1627.2078986442646
31
0
0
LINE
5
613
100
AcDbEntity
8
0
100
AcDbLine
10
138.189762
20
-635.69750799999997
30
0
11
109.18976200000002
21
-635.69750799999997
31
0
0
LINE
5
614
100
AcDbEntity
8
0
100
AcDbLine
10
109.18976200000002
20
-635.69750799999997
30
0
11
109.18976200000002
21
-606.69750799999997
31
0
0
LINE
5
615
100
AcDbEntity
8
0
100
AcDbLine
10
109.18976200000002
20
-606.69750799999997
30
0
11
138.189762
21
-606.69750799999997
31
0
0
LINE
5
616
100
AcDbEntity
8
0
100
AcDbLine
10
138.189762
20
-606.69750799999997
30
0
11
138.189762
21
-635.69750799999997
31
0
0
LINE
5
617
100
AcDbEntity
8
0
100
AcDbLine
10
138.189762
20
-635.69750799999997
30
0
11
109.18976200000002
21
-606.69750799999997
31
0
0
LINE
5
618
100
AcDbEntity
8
0
100
AcDbLine
10
109.18976200000002
20
-635.69750799999997
30
0
11
138.189762
21
-606.69750799999997
31
0
0
LINE
5
619
100
AcDbEntity
8
0
100
AcDbLine
10
525.81023800000003
20
-635.69750799999997
30
0
11
554.81023800000003
21
-635.69750799999997
31
0
0
LINE
5
620
100
AcDbEntity
8
0
100
AcDbLine
10
554.81023800000003
20
-635.69750799999997
30
0
11
554.81023800000003
21
-606.69750799999997
31
0
0
LINE
5
621
100
AcDbEntity
8
0
100
AcDbLine
10
554.81023800000003
20
-606.69750799999997
30
0
11
525.81023800000003
21
-606.69750799999997
31
0
0
LINE
5
622
100
AcDbEntity
8
0
100
AcDbLine
10
525.81023800000003
20
-606.69750799999997
30
0
11
525.81023800000003
21
-635.69750799999997
31
0
0
LINE
5
623
100
AcDbEntity
8
0
100
AcDbLine
10
525.81023800000003
20
-635.69750799999997
30
0
11
554.81023800000003
21
-606.69750799999997
31
0
0
LINE
5
624
100
AcDbEntity
8
0
100
AcDbLine
10
554.81023800000003
20
-635.69750799999997
30
0
11
525.81023800000003
21
-606.69750799999997
31
0
0
LINE
5
625
100
AcDbEntity
8
0
100
AcDbLine
10
664
20
-1216
30
0
11
644
21
-1216
31
0
0
LINE
5
626
100
AcDbEntity
8
0
100
AcDbLine
10
644
20
-945
30
0
11
664
21
-945
31
0
0
CIRCLE
5
627
100
AcDbEntity
8
0
100
AcDbCircle
10
644
20
-1196
30
0
40
2.5
210
0
220
0
230
1
0
LINE
5
628
100
AcDbEntity
8
0
100
AcDbLine
10
644
20
-1216
30
0
11
644
21
-1196
31
0
0
LINE
5
629
100
AcDbEntity
8
0
100
AcDbLine
10
554.81023799999991
20
-985.69750800000008
30
0
11
525.81023800000003
21
-956.69750799999997
31
0
0
LINE
5
630
100
AcDbEntity
8
0
100
AcDbLine
10
554.81023799999991
20
-985.69750800000008
30
0
11
554.81023799999991
21
-956.69750799999997
31
0
0
LINE
5
631
100
AcDbEntity
8
0
100
AcDbLine
10
664
20
-925
30
0
11
644
21
-925
31
0
0
LINE
5
632
100
AcDbEntity
8
0
100
AcDbLine
10
109.18976200000004
20
-985.69750799999997
30
0
11
109.18976200000004
21
-956.69750799999997
31
0
0
LINE
5
633
100
AcDbEntity
8
0
100
AcDbLine
10
0
20
-925
30
0
11
20
21
-925
31
0
0
LINE
5
634
100
AcDbEntity
8
0
100
AcDbLine
10
20
20
-925
30
0
11
20
21
-945
31
0
0
LINE
5
635
100
AcDbEntity
8
0
100
AcDbLine
10
138.189762
20
-956.69750799999997
30
0
11
138.189762
21
-985.69750799999997
31
0
0
LINE
5
636
100
AcDbEntity
8
0
100
AcDbLine
10
0
20
-999.73357899999996
30
0
11
0
21
-925
31
0
0
LINE
5
637
100
AcDbEntity
8
0
100
AcDbLine
10
525.81023800000003
20
-956.69750799999997
30
0
11
525.81023800000003
21
-985.69750800000008
31
0
0
LINE
5
638
100
AcDbEntity
8
0
100
AcDbLine
10
525.81023800000003
20
-985.69750800000008
30
0
11
554.81023799999991
21
-956.69750799999997
31
0
0
LINE
5
639
100
AcDbEntity
8
0
100
AcDbLine
10
525.81023800000003
20
-985.69750800000008
30
0
11
554.81023799999991
21
-985.69750800000008
31
0
0
CIRCLE
5
640
100
AcDbEntity
8
0
100
AcDbCircle
10
644
20
-945
30
0
40
2.4999999999999996
210
0
220
0
230
1
0
LINE
5
641
100
AcDbEntity
8
0
100
AcDbLine
10
664
20
-945
30
0
11
664
21
-925
31
0
0
LINE
5
642
100
AcDbEntity
8
0
100
AcDbLine
10
664
20
-925
30
0
11
664
21
-1216
31
0
0
LINE
5
643
100
AcDbEntity
8
0
100
AcDbLine
10
644
20
-925
30
0
11
644
21
-945
31
0
0
CIRCLE
5
644
100
AcDbEntity
8
0
100
AcDbCircle
10
20
20
-1196
30
0
40
2.5
210
0
220
0
230
1
0
LINE
5
645
100
AcDbEntity
8
0
100
AcDbLine
10
0
20
-1216
30
0
11
0
21
-925
31
0
0
LINE
5
646
100
AcDbEntity
8
0
100
AcDbLine
10
0
20
-945
30
0
11
0
21
-925
31
0
0
LINE
5
647
100
AcDbEntity
8
0
100
AcDbLine
10
109.18976200000004
20
-956.69750799999997
30
0
11
138.189762
21
-956.69750799999997
31
0
0
LINE
5
648
100
AcDbEntity
8
0
100
AcDbLine
10
0
20
-925
30
0
11
332
21
-925
31
0
0
LINE
5
649
100
AcDbEntity
8
0
100
AcDbLine
10
0
20
-1216
30
0
11
20
21
-1216
31
0
0
LINE
5
650
100
AcDbEntity
8
0
100
AcDbLine
10
20
20
-1196
30
0
11
0
21
-1196
31
0
0
LINE
5
651
100
AcDbEntity
8
0
100
AcDbLine
10
0
20
-1196
30
0
11
0
21
-1216
31
0
0
LINE
5
652
100
AcDbEntity
8
0
100
AcDbLine
10
20
20
-1216
30
0
11
20
21
-1196
31
0
0
LWPOLYLINE
5
653
100
AcDbEntity
8
0
100
AcDbPolyline
90
4
70
1
43
0.0
10
289
20
-1006.733579
42
-0.99999999999999989
10
289
20
-992.73357899999996
10
375.00000000000006
20
-992.73357899999996
42
-0.99999999999999989
10
375.00000000000006
20
-1006.733579
0
ARC
5
654
100
AcDbEntity
8
0
100
AcDbCircle
10
375.00000000000006
20
-999.73357899999996
30
0
40
7.0000000000000284
210
0
220
0
230
1
100
AcDbArc
50
-90
51
90
0
LINE
5
655
100
AcDbEntity
8
0
100
AcDbLine
10
138.189762
20
-985.69750799999997
30
0
11
109.18976200000004
21
-985.69750799999997
31
0
0
CIRCLE
5
656
100
AcDbEntity
8
0
100
AcDbCircle
10
20
20
-945
30
0
40
2.4999999999999902
210
0
220
0
230
1
0
LINE
5
657
100
AcDbEntity
8
0
100
AcDbLine
10
20
20
-945
30
0
11
0
21
-945
31
0
0
LINE
5
658
100
AcDbEntity
8
0
100
AcDbLine
10
109.18976200000004
20
-985.69750799999997
30
0
11
138.189762
21
-956.69750799999997
31
0
0
LINE
5
659
100
AcDbEntity
8
0
100
AcDbLine
10
138.189762
20
-985.69750799999997
30
0
11
109.18976200000004
21
-956.69750799999997
31
0
0
LINE
5
660
100
AcDbEntity
8
0
100
AcDbLine
10
664
20
-1216
30
0
11
0
21
-1216
31
0
0
LINE
5
661
100
AcDbEntity
8
0
100
AcDbLine
10
0
20
-925
30
0
11
664
21
-925
31
0
0
LINE
5
662
100
AcDbEntity
8
0
100
AcDbLine
10
644
20
-1196
30
0
11
664
21
-1196
31
0
0
LINE
5
663
100
AcDbEntity
8
0
100
AcDbLine
10
664
20
-1196
30
0
11
664
21
-1216
31
0
0
LINE
5
664
100
AcDbEntity
8
0
100
AcDbLine
10
554.81023799999991
20
-956.69750799999997
30
0
11
525.81023800000003
21
-956.69750799999997
31
0
0
LINE
5
665
100
AcDbEntity
8
0
100
AcDbLine
10
644
20
525
30
0
11
644
21
505
31
0
0
CIRCLE
5
666
100
AcDbEntity
8
0
100
AcDbCircle
10
644
20
254.00000000000006
30
0
40
2.5
210
0
220
0
230
1
0
LINE
5
667
100
AcDbEntity
8
0
100
AcDbLine
10
664
20
525
30
0
11
644
21
525
31
0
0
LINE
5
668
100
AcDbEntity
8
0
100
AcDbLine
10
644
20
505
30
0
11
664
21
505
31
0
0
LINE
5
669
100
AcDbEntity
8
0
100
AcDbLine
10
664
20
254.00000000000006
30
0
11
664
21
234.00000000000006
31
0
0
LINE
5
670
100
AcDbEntity
8
0
100
AcDbLine
10
664
20
505
30
0
11
664
21
525
31
0
0
CIRCLE
5
671
100
AcDbEntity
8
0
100
AcDbCircle
10
644
20
505
30
0
40
2.4999999999999996
210
0
220
0
230
1
0
LINE
5
672
100
AcDbEntity
8
0
100
AcDbLine
10
644
20
234.00000000000006
30
0
11
644
21
254.00000000000006
31
0
0
LINE
5
673
100
AcDbEntity
8
0
100
AcDbLine
10
664
20
234.00000000000006
30
0
11
644
21
234.00000000000006
31
0
0
LINE
5
674
100
AcDbEntity
8
0
100
AcDbLine
10
644
20
254.00000000000006
30
0
11
664
21
254.00000000000006
31
0
0
LINE
5
675
100
AcDbEntity
8
0
100
AcDbLine
10
664
20
525
30
0
11
664
21
234.00000000000006
31
0
0
LINE
5
676
100
AcDbEntity
8
0
100
AcDbLine
10
0
20
525
30
0
11
332
21
525
31
0
0
LINE
5
677
100
AcDbEntity
8
0
100
AcDbLine
10
0
20
525
30
0
11
664
21
525
31
0
0
LINE
5
678
100
AcDbEntity
8
0
100
AcDbLine
10
664
20
234.00000000000006
30
0
11
0
21
234.00000000000006
31
0
0
LINE
5
679
100
AcDbEntity
8
0
100
AcDbLine
10
0
20
234.00000000000006
30
0
11
0
21
525
31
0
0
LINE
5
680
100
AcDbEntity
8
0
100
AcDbLine
10
20
20
234.00000000000006
30
0
11
20
21
254.00000000000006
31
0
0
LINE
5
681
100
AcDbEntity
8
0
100
AcDbLine
10
20
20
254.00000000000006
30
0
11
0
21
254.00000000000006
31
0
0
LINE
5
682
100
AcDbEntity
8
0
100
AcDbLine
10
0
20
254.00000000000006
30
0
11
0
21
234.00000000000006
31
0
0
LINE
5
683
100
AcDbEntity
8
0
100
AcDbLine
10
0
20
234.00000000000006
30
0
11
20
21
234.00000000000006
31
0
0
CIRCLE
5
684
100
AcDbEntity
8
0
100
AcDbCircle
10
20
20
254.00000000000006
30
0
40
2.5
210
0
220
0
230
1
0
CIRCLE
5
685
100
AcDbEntity
8
0
100
AcDbCircle
10
20
20
505
30
0
40
2.4999999999999902
210
0
220
0
230
1
0
LINE
5
686
100
AcDbEntity
8
0
100
AcDbLine
10
0
20
525
30
0
11
20
21
525
31
0
0
LINE
5
687
100
AcDbEntity
8
0
100
AcDbLine
10
20
20
505
30
0
11
0
21
505
31
0
0
LINE
5
688
100
AcDbEntity
8
0
100
AcDbLine
10
20
20
525
30
0
11
20
21
505
31
0
0
LINE
5
689
100
AcDbEntity
8
0
100
AcDbLine
10
0
20
505
30
0
11
0
21
525
31
0
0
LINE
5
690
100
AcDbEntity
8
0
100
AcDbLine
10
180.5
20
-1312
30
0
11
151.50000000000003
21
-1312
31
0
0
LINE
5
691
100
AcDbEntity
8
0
100
AcDbLine
10
151.50000000000003
20
-1312
30
0
11
151.50000000000003
21
-1283
31
0
0
LINE
5
692
100
AcDbEntity
8
0
100
AcDbLine
10
151.50000000000003
20
-1283
30
0
11
180.5
21
-1283
31
0
0
LINE
5
693
100
AcDbEntity
8
0
100
AcDbLine
10
180.5
20
-1283
30
0
11
180.5
21
-1312
31
0
0
LINE
5
694
100
AcDbEntity
8
0
100
AcDbLine
10
180.5
20
-1312
30
0
11
151.50000000000003
21
-1283
31
0
0
LINE
5
695
100
AcDbEntity
8
0
100
AcDbLine
10
151.50000000000003
20
-1312
30
0
11
180.5
21
-1283
31
0
0
LINE
5
696
100
AcDbEntity
8
0
100
AcDbLine
10
318.75000000000006
20
-1303.75
30
0
11
306.25000000000006
21
-1303.75
31
0
0
LINE
5
697
100
AcDbEntity
8
0
100
AcDbLine
10
306.25000000000006
20
-1303.75
30
0
11
306.25000000000006
21
-1291.25
31
0
0
LINE
5
698
100
AcDbEntity
8
0
100
AcDbLine
10
306.25000000000006
20
-1291.25
30
0
11
318.75000000000006
21
-1291.25
31
0
0
LINE
5
699
100
AcDbEntity
8
0
100
AcDbLine
10
318.75000000000006
20
-1291.25
30
0
11
318.75000000000006
21
-1303.75
31
0
0
LINE
5
700
100
AcDbEntity
8
0
100
AcDbLine
10
318.75000000000006
20
-1303.75
30
0
11
306.25000000000006
21
-1291.25
31
0
0
LINE
5
701
100
AcDbEntity
8
0
100
AcDbLine
10
306.25000000000006
20
-1303.75
30
0
11
318.75000000000006
21
-1291.25
31
0
0
LINE
5
702
100
AcDbEntity
8
0
100
AcDbLine
10
332
20
-1333
30
0
11
332
21
-1260
31
0
0
LWPOLYLINE
5
703
100
AcDbEntity
8
0
100
AcDbPolyline
90
4
70
1
43
0.0
10
512.5
20
-1312
10
483.50000000000011
20
-1312
10
483.50000000000011
20
-1283
10
512.5
20
-1283
0
LWPOLYLINE
5
704
100
AcDbEntity
8
0
100
AcDbPolyline
90
4
70
1
43
0.0
10
357.75000000000006
20
-1291.25
10
357.75000000000006
20
-1303.75
10
345.25000000000006
20
-1303.75
10
345.25000000000006
20
-1291.25
0
LINE
5
705
100
AcDbEntity
8
0
100
AcDbLine
10
136.91499479999999
20
-748.07934400000386
30
0
11
78.914994799999988
21
-748.07934400000386
31
0
0
LINE
5
706
100
AcDbEntity
8
0
100
AcDbLine
10
78.914994799999988
20
-748.07934400000386
30
0
11
78.914994799999988
21
-690.07934400000386
31
0
0
LINE
5
707
100
AcDbEntity
8
0
100
AcDbLine
10
78.914994799999988
20
-690.07934400000386
30
0
11
136.91499479999999
21
-690.07934400000386
31
0
0
LINE
5
708
100
AcDbEntity
8
0
100
AcDbLine
10
136.91499479999999
20
-690.07934400000386
30
0
11
136.91499479999999
21
-748.07934400000386
31
0
0
LINE
5
709
100
AcDbEntity
8
0
100
AcDbLine
10
136.91499479999999
20
-748.07934400000386
30
0
11
78.914994799999988
21
-690.07934400000386
31
0
0
LINE
5
710
100
AcDbEntity
8
0
100
AcDbLine
10
78.914994799999988
20
-748.07934400000386
30
0
11
136.91499479999999
21
-690.07934400000386
31
0
0
LINE
5
711
100
AcDbEntity
8
0
100
AcDbLine
10
209.80813880000107
20
-748.07934400000386
30
0
11
151.80813880000102
21
-748.07934400000386
31
0
0
LINE
5
712
100
AcDbEntity
8
0
100
AcDbLine
10
151.80813880000102
20
-748.07934400000386
30
0
11
151.80813880000102
21
-690.07934400000386
31
0
0
LINE
5
713
100
AcDbEntity
8
0
100
AcDbLine
10
151.80813880000102
20
-690.07934400000386
30
0
11
209.80813880000107
21
-690.07934400000386
31
0
0
LINE
5
714
100
AcDbEntity
8
0
100
AcDbLine
10
209.80813880000107
20
-690.07934400000386
30
0
11
209.80813880000107
21
-748.07934400000386
31
0
0
LINE
5
715
100
AcDbEntity
8
0
100
AcDbLine
10
209.80813880000107
20
-748.07934400000386
30
0
11
151.80813880000102
21
-690.07934400000386
31
0
0
LINE
5
716
100
AcDbEntity
8
0
100
AcDbLine
10
151.80813880000102
20
-748.07934400000386
30
0
11
209.80813880000107
21
-690.07934400000386
31
0
0
LINE
5
717
100
AcDbEntity
8
0
100
AcDbLine
10
282.70128280000222
20
-748.07934400000386
30
0
11
224.70128280000225
21
-748.07934400000386
31
0
0
LINE
5
718
100
AcDbEntity
8
0
100
AcDbLine
10
224.70128280000225
20
-748.07934400000386
30
0
11
224.70128280000225
21
-690.07934400000386
31
0
0
LINE
5
719
100
AcDbEntity
8
0
100
AcDbLine
10
224.70128280000225
20
-690.07934400000386
30
0
11
282.70128280000222
21
-690.07934400000386
31
0
0
LINE
5
720
100
AcDbEntity
8
0
100
AcDbLine
10
282.70128280000222
20
-690.07934400000386
30
0
11
282.70128280000222
21
-748.07934400000386
31
0
0
LINE
5
721
100
AcDbEntity
8
0
100
AcDbLine
10
282.70128280000222
20
-748.07934400000386
30
0
11
224.70128280000225
21
-690.07934400000386
31
0
0
LINE
5
722
100
AcDbEntity
8
0
100
AcDbLine
10
224.70128280000225
20
-748.07934400000386
30
0
11
282.70128280000222
21
-690.07934400000386
31
0
0
LINE
5
723
100
AcDbEntity
8
0
100
AcDbLine
10
512.19186119999904
20
-690.07934400000386
30
0
11
454.19186119999898
21
-690.07934400000386
31
0
0
LINE
5
724
100
AcDbEntity
8
0
100
AcDbLine
10
454.19186119999898
20
-748.07934400000386
30
0
11
512.19186119999904
21
-690.07934400000386
31
0
0
LINE
5
725
100
AcDbEntity
8
0
100
AcDbLine
10
527.08500520000007
20
-748.07934400000386
30
0
11
585.08500520000007
21
-748.07934400000386
31
0
0
LINE
5
726
100
AcDbEntity
8
0
100
AcDbLine
10
512.19186119999904
20
-748.07934400000386
30
0
11
454.19186119999898
21
-690.07934400000386
31
0
0
LINE
5
727
100
AcDbEntity
8
0
100
AcDbLine
10
513.19186119999904
20
-749.0793440000017
30
0
11
526.08500520000007
21
-749.07934399999999
31
0
0
LINE
5
728
100
AcDbEntity
8
0
100
AcDbLine
10
454.19186119999898
20
-748.07934400000386
30
0
11
512.19186119999904
21
-748.07934400000386
31
0
0
LINE
5
729
100
AcDbEntity
8
0
100
AcDbLine
10
585.08500520000007
20
-748.07934400000386
30
0
11
585.08500520000007
21
-690.07934400000386
31
0
0
LINE
5
730
100
AcDbEntity
8
0
100
AcDbLine
10
381.29871719999784
20
-690.07934400000386
30
0
11
381.29871719999784
21
-748.07934400000386
31
0
0
LINE
5
731
100
AcDbEntity
8
0
100
AcDbLine
10
381.29871719999784
20
-748.07934400000386
30
0
11
439.29871719999778
21
-748.07934400000386
31
0
0
LINE
5
732
100
AcDbEntity
8
0
100
AcDbLine
10
454.19186119999898
20
-690.07934400000386
30
0
11
454.19186119999898
21
-748.07934400000386
31
0
0
LINE
5
733
100
AcDbEntity
8
0
100
AcDbLine
10
527.08500520000007
20
-748.07934400000386
30
0
11
585.08500520000007
21
-690.07934400000386
31
0
0
LINE
5
734
100
AcDbEntity
8
0
100
AcDbLine
10
585.08500520000007
20
-690.07934400000386
30
0
11
527.08500520000007
21
-690.07934400000386
31
0
0
LINE
5
735
100
AcDbEntity
8
0
100
AcDbLine
10
439.29871719999778
20
-690.07934400000386
30
0
11
381.29871719999784
21
-690.07934400000386
31
0
0
LINE
5
736
100
AcDbEntity
8
0
100
AcDbLine
10
381.29871719999784
20
-748.07934400000386
30
0
11
439.29871719999778
21
-690.07934400000386
31
0
0
LINE
5
737
100
AcDbEntity
8
0
100
AcDbLine
10
440.29871719999784
20
-749.07934400000386
30
0
11
453.19186119999898
21
-749.0793440000017
31
0
0
LINE
5
738
100
AcDbEntity
8
0
100
AcDbLine
10
585.08500520000007
20
-748.07934400000386
30
0
11
527.08500520000007
21
-690.07934400000386
31
0
0
LINE
5
739
100
AcDbEntity
8
0
100
AcDbLine
10
527.08500520000007
20
-690.07934400000386
30
0
11
527.08500520000007
21
-748.07934400000386
31
0
0
LINE
5
740
100
AcDbEntity
8
0
100
AcDbLine
10
512.19186119999904
20
-748.07934400000386
30
0
11
512.19186119999904
21
-690.07934400000386
31
0
0
LINE
5
741
100
AcDbEntity
8
0
100
AcDbLine
10
439.29871719999778
20
-748.07934400000386
30
0
11
381.29871719999784
21
-690.07934400000386
31
0
0
LINE
5
742
100
AcDbEntity
8
0
100
AcDbLine
10
439.29871719999778
20
-748.07934400000386
30
0
11
439.29871719999778
21
-690.07934400000386
31
0
0
LINE
5
743
100
AcDbEntity
8
0
100
AcDbLine
10
225.45128280000242
20
-1098.8293440000039
30
0
11
283.4512828000021
21
-1040.8293440000039
31
0
0
LINE
5
744
100
AcDbEntity
8
0
100
AcDbLine
10
152.55813880000119
20
-1098.8293440000039
30
0
11
152.55813880000119
21
-1040.8293440000039
31
0
0
LINE
5
745
100
AcDbEntity
8
0
100
AcDbLine
10
79.664994800000088
20
-1098.8293440000039
30
0
11
79.664994800000088
21
-1040.8293440000039
31
0
0
LINE
5
746
100
AcDbEntity
8
0
100
AcDbLine
10
79.664994800000088
20
-1040.8293440000039
30
0
11
137.66499479999987
21
-1040.8293440000039
31
0
0
LINE
5
747
100
AcDbEntity
8
0
100
AcDbLine
10
137.66499479999987
20
-1098.8293440000039
30
0
11
79.664994800000088
21
-1040.8293440000039
31
0
0
LINE
5
748
100
AcDbEntity
8
0
100
AcDbLine
10
152.55813880000119
20
-1040.8293440000039
30
0
11
210.55813880000096
21
-1040.8293440000039
31
0
0
LINE
5
749
100
AcDbEntity
8
0
100
AcDbLine
10
151.55813880000096
20
-1099.8293440000018
30
0
11
138.66499479999987
21
-1099.829344
31
0
0
LINE
5
750
100
AcDbEntity
8
0
100
AcDbLine
10
137.66499479999987
20
-1040.8293440000039
30
0
11
137.66499479999987
21
-1098.8293440000039
31
0
0
LINE
5
751
100
AcDbEntity
8
0
100
AcDbLine
10
79.664994800000088
20
-1098.8293440000039
30
0
11
137.66499479999987
21
-1040.8293440000039
31
0
0
LINE
5
752
100
AcDbEntity
8
0
100
AcDbLine
10
152.55813880000119
20
-1098.8293440000039
30
0
11
210.55813880000096
21
-1040.8293440000039
31
0
0
LINE
5
753
100
AcDbEntity
8
0
100
AcDbLine
10
210.55813880000096
20
-1098.8293440000039
30
0
11
152.55813880000119
21
-1098.8293440000039
31
0
0
LINE
5
754
100
AcDbEntity
8
0
100
AcDbLine
10
210.55813880000096
20
-1098.8293440000039
30
0
11
152.55813880000119
21
-1040.8293440000039
31
0
0
LINE
5
755
100
AcDbEntity
8
0
100
AcDbLine
10
137.66499479999987
20
-1098.8293440000039
30
0
11
79.664994800000088
21
-1098.8293440000039
31
0
0
LINE
5
756
100
AcDbEntity
8
0
100
AcDbLine
10
210.55813880000096
20
-1040.8293440000039
30
0
11
210.55813880000096
21
-1098.8293440000039
31
0
0
LINE
5
757
100
AcDbEntity
8
0
100
AcDbLine
10
225.45128280000242
20
-1098.8293440000039
30
0
11
225.45128280000242
21
-1040.8293440000039
31
0
0
LINE
5
758
100
AcDbEntity
8
0
100
AcDbLine
10
283.4512828000021
20
-1098.8293440000039
30
0
11
225.45128280000242
21
-1098.8293440000039
31
0
0
LINE
5
759
100
AcDbEntity
8
0
100
AcDbLine
10
225.45128280000242
20
-1040.8293440000039
30
0
11
283.4512828000021
21
-1040.8293440000039
31
0
0
LINE
5
760
100
AcDbEntity
8
0
100
AcDbLine
10
283.4512828000021
20
-1040.8293440000039
30
0
11
283.4512828000021
21
-1098.8293440000039
31
0
0
LINE
5
761
100
AcDbEntity
8
0
100
AcDbLine
10
283.4512828000021
20
-1098.8293440000039
30
0
11
225.45128280000242
21
-1040.8293440000039
31
0
0
LINE
5
762
100
AcDbEntity
8
0
100
AcDbLine
10
224.4512828000021
20
-1099.8293440000039
30
0
11
211.55813880000096
21
-1099.8293440000018
31
0
0
LINE
5
763
100
AcDbEntity
8
0
100
AcDbLine
10
332
20
-925
30
0
11
332
21
-1216
31
0
0
LINE
5
764
100
AcDbEntity
8
0
100
AcDbLine
10
526.33500520000018
20
-1098.8293440000039
30
0
11
584.33500519999996
21
-1098.8293440000039
31
0
0
LINE
5
765
100
AcDbEntity
8
0
100
AcDbLine
10
526.33500520000018
20
-1040.8293440000039
30
0
11
526.33500520000018
21
-1098.8293440000039
31
0
0
LINE
5
766
100
AcDbEntity
8
0
100
AcDbLine
10
526.33500520000018
20
-1098.8293440000039
30
0
11
584.33500519999996
21
-1040.8293440000039
31
0
0
LINE
5
767
100
AcDbEntity
8
0
100
AcDbLine
10
380.54871719999795
20
-1040.8293440000039
30
0
11
380.54871719999795
21
-1098.8293440000039
31
0
0
LINE
5
768
100
AcDbEntity
8
0
100
AcDbLine
10
380.54871719999795
20
-1098.8293440000039
30
0
11
438.54871719999767
21
-1098.8293440000039
31
0
0
LINE
5
769
100
AcDbEntity
8
0
100
AcDbLine
10
439.54871719999795
20
-1099.8293440000039
30
0
11
452.4418611999991
21
-1099.8293440000018
31
0
0
LWPOLYLINE
5
770
100
AcDbEntity
8
0
100
AcDbPolyline
90
6
70
1
43
0.0
10
453.4418611999991
20
-1098.8293440000039
10
453.4418611999991
20
-1040.8293440000039
10
511.44186119999887
20
-1098.8293440000039
10
511.44186119999887
20
-1040.8293440000039
10
453.4418611999991
20
-1098.8293440000039
10
511.44186119999887
20
-1098.8293440000039
0
LINE
5
771
100
AcDbEntity
8
0
100
AcDbLine
10
438.54871719999767
20
-1098.8293440000039
30
0
11
380.54871719999795
21
-1040.8293440000039
31
0
0
LINE
5
772
100
AcDbEntity
8
0
100
AcDbLine
10
438.54871719999767
20
-1098.8293440000039
30
0
11
438.54871719999767
21
-1040.8293440000039
31
0
0
LINE
5
773
100
AcDbEntity
8
0
100
AcDbLine
10
380.54871719999795
20
-1098.8293440000039
30
0
11
438.54871719999767
21
-1040.8293440000039
31
0
0
LINE
5
774
100
AcDbEntity
8
0
100
AcDbLine
10
438.54871719999767
20
-1040.8293440000039
30
0
11
380.54871719999795
21
-1040.8293440000039
31
0
0
LINE
5
775
100
AcDbEntity
8
0
100
AcDbLine
10
584.33500519999996
20
-1098.8293440000039
30
0
11
526.33500520000018
21
-1040.8293440000039
31
0
0
LINE
5
776
100
AcDbEntity
8
0
100
AcDbLine
10
584.33500519999996
20
-1098.8293440000039
30
0
11
584.33500519999996
21
-1040.8293440000039
31
0
0
LINE
5
777
100
AcDbEntity
8
0
100
AcDbLine
10
512.44186119999904
20
-1099.8293440000018
30
0
11
525.33500520000018
21
-1099.829344
31
0
0
LINE
5
778
100
AcDbEntity
8
0
100
AcDbLine
10
584.33500519999996
20
-1040.8293440000039
30
0
11
526.33500520000018
21
-1040.8293440000039
31
0
0
ENDSEC
0
SECTION
2
OBJECTS
0
DICTIONARY
5
C
100
AcDbDictionary
3
ACAD_GROUP
350
D
3
ACAD_MLINESTYLE
350
17
0
DICTIONARY
5
D
100
AcDbDictionary
0
DICTIONARY
5
1A
330
C
100
AcDbDictionary
0
DICTIONARY
5
17
100
AcDbDictionary
0
ENDSEC
0
EOF
