0
SECTION
2
HEADER
9
$INSUNITS
70
4
9
$ACADVER
1
AC1014
9
$HANDSEED
5
FFFF
0
ENDSEC
0
SECTION
2
TABLES
0
TABLE
2
VPORT
5
8
100
AcDbSymbolTable
0
ENDTAB
0
TABLE
2
LTYPE
5
5
100
AcDbSymbolTable
0
LTYPE
5
14
100
AcDbSymbolTableRecord
100
AcDbLinetypeTableRecord
2
BYBLOCK
70
0
0
LTYPE
5
15
100
AcDbSymbolTableRecord
100
AcDbLinetypeTableRecord
2
BYLAYER
70
0
0
ENDTAB
0
TABLE
2
LAYER
5
2
100
AcDbSymbolTable
70
2
0
LAYER
5
50
100
AcDbSymbolTableRecord
100
AcDbLayerTableRecord
2
0
70
0
6
CONTINUOUS
0
ENDTAB
0
TABLE
2
STYLE
5
3
100
AcDbSymbolTable
70
1
0
STYLE
5
11
100
AcDbSymbolTableRecord
100
AcDbTextStyleTableRecord
2
STANDARD
70
0
0
ENDTAB
0
TABLE
2
VIEW
5
6
100
AcDbSymbolTable
70
0
0
ENDTAB
0
TABLE
2
UCS
5
7
100
AcDbSymbolTable
70
0
0
ENDTAB
0
TABLE
2
APPID
5
9
100
AcDbSymbolTable
70
2
0
APPID
5
12
100
AcDbSymbolTableRecord
100
AcDbRegAppTableRecord
2
ACAD
70
0
0
ENDTAB
0
TABLE
2
DIMSTYLE
5
A
100
AcDbSymbolTable
70
1
0
ENDTAB
0
TABLE
2
BLOCK_RECORD
5
1
100
AcDbSymbolTable
70
1
0
BLOCK_RECORD
5
1F
100
AcDbSymbolTableRecord
100
AcDbBlockTableRecord
2
*MODEL_SPACE
0
BLOCK_RECORD
5
1B
100
AcDbSymbolTableRecord
100
AcDbBlockTableRecord
2
*PAPER_SPACE
0
ENDTAB
0
ENDSEC
0
SECTION
2
BLOCKS
0
BLOCK
5
20
100
AcDbEntity
100
AcDbBlockBegin
2
*MODEL_SPACE
0
ENDBLK
5
21
100
AcDbEntity
100
AcDbBlockEnd
0
BLOCK
5
1C
100
AcDbEntity
100
AcDbBlockBegin
2
*PAPER_SPACE
0
ENDBLK
5
1D
100
AcDbEntity
100
AcDbBlockEnd
0
ENDSEC
0
SECTION
2
ENTITIES
0
LWPOLYLINE
5
100
100
AcDbEntity
8
0
100
AcDbPolyline
90
4
70
1
43
0.0
10
375.00000000000006
20
-642.73357899999996
10
289
20
-642.73357899999996
42
0.99999999999999989
10
289
20
-656.73357899999996
10
375.00000000000006
20
-656.73357899999996
42
0.99999999999999989
0
ARC
5
101
100
AcDbEntity
8
0
100
AcDbCircle
10
375.00000000000006
20
-649.73357899999996
30
0
40
7.0000000000000284
210
0
220
0
230
1
100
AcDbArc
50
-90
51
90
0
CIRCLE
5
102
100
AcDbEntity
8
0
100
AcDbCircle
10
277.07828900000004
20
-626.55009299999995
30
0
40
2.6500000000000057
210
0
220
0
230
1
0
CIRCLE
5
103
100
AcDbEntity
8
0
100
AcDbCircle
10
277.07828900000004
20
-672.91706500000009
30
0
40
2.6500000000000057
210
0
220
0
230
1
0
CIRCLE
5
104
100
AcDbEntity
8
0
100
AcDbCircle
10
386.92171058389613
20
-626.48657676891366
30
0
40
2.6500000000000021
210
0
220
0
230
1
0
CIRCLE
5
105
100
AcDbEntity
8
0
100
AcDbCircle
10
386.92171058389613
20
-672.8535492834917
30
0
40
2.6500000000000057
210
0
220
0
230
1
0
CIRCLE
5
106
100
AcDbEntity
8
0
100
AcDbCircle
10
299.07828900000175
20
-611.60969300000056
30
0
40
2.6499999999999928
210
0
220
0
230
1
0
CIRCLE
5
107
100
AcDbEntity
8
0
100
AcDbCircle
10
321.0782890000018
20
-611.60969300000056
30
0
40
2.6500000000000008
210
0
220
0
230
1
0
CIRCLE
5
108
100
AcDbEntity
8
0
100
AcDbCircle
10
343.0782890000018
20
-611.60969300000056
30
0
40
2.6500000000000057
210
0
220
0
230
1
0
CIRCLE
5
109
100
AcDbEntity
8
0
100
AcDbCircle
10
365.07828900000169
20
-611.60969300000056
30
0
40
2.6500000000000057
210
0
220
0
230
1
0
CIRCLE
5
110
100
AcDbEntity
8
0
100
AcDbCircle
10
364.92171058389437
20
-687.79394928349097
30
0
40
2.6500000000000075
210
0
220
0
230
1
0
CIRCLE
5
111
100
AcDbEntity
8
0
100
AcDbCircle
10
342.92171058389448
20
-687.79394928349097
30
0
40
2.6499999999999968
210
0
220
0
230
1
0
CIRCLE
5
112
100
AcDbEntity
8
0
100
AcDbCircle
10
320.92171058389448
20
-687.79394928349097
30
0
40
2.6500000000000057
210
0
220
0
230
1
0
CIRCLE
5
113
100
AcDbEntity
8
0
100
AcDbCircle
10
298.92171058389442
20
-687.79394928349097
30
0
40
2.6500000000000057
210
0
220
0
230
1
0
LWPOLYLINE
5
114
100
AcDbEntity
8
0
100
AcDbPolyline
90
4
70
1
43
0.0
10
664
20
-575
10
0
20
-575
10
0
20
-866
10
664
20
-866
0
LWPOLYLINE
5
115
100
AcDbEntity
8
0
100
AcDbPolyline
90
4
70
1
43
0.0
10
664
20
-1260
10
0
20
-1260
10
0
20
-1333
10
664
20
-1333
0
LWPOLYLINE
5
116
100
AcDbEntity
8
0
100
AcDbPolyline
90
4
70
1
43
0.0
10
3.2355623065705562e-30
20
-1422
10
0
20
-1495
10
664
20
-1495
10
664
20
-1422
0
LWPOLYLINE
5
117
100
AcDbEntity
8
0
100
AcDbPolyline
90
4
70
1
43
0.0
10
664
20
-141
10
664
20
150
10
0
20
150
10
0
20
-141
0
LWPOLYLINE
5
118
100
AcDbEntity
8
0
100
AcDbPolyline
90
8
70
1
43
0.0
10
60
20
120
10
604
20
120
42
-0.41421356237309648
10
634
20
90
10
634
20
-80.999999999999943
42
-0.41421356237309609
10
604
20
-110.99999999999991
10
59.999999999999964
20
-110.99999999999994
42
-0.41421356237309576
10
29.999999999999972
20
-80.999999999999929
10
29.999999999999982
20
90.000000000000014
42
-0.41421356237309576
0
LWPOLYLINE
5
119
100
AcDbEntity
8
0
100
AcDbPolyline
90
8
70
1
43
0.0
10
634
20
-260
10
634
20
-430.99999999999994
42
-0.41421356237309648
10
604
20
-460.99999999999994
10
59.999999999999964
20
-460.99999999999994
42
-0.41421356237309631
10
29.999999999999982
20
-430.99999999999994
10
30
20
-260
42
-0.41421356237309503
10
60
20
-230
10
604
20
-230
42
-0.41421356237309576
0
LWPOLYLINE
5
120
100
AcDbEntity
8
0
100
AcDbPolyline
90
4
70
1
43
0.0
10
664
20
-491
10
664
20
-200
10
0
20
-200
10
0
20
-491
0
LINE
5
121
100
AcDbEntity
8
0
100
AcDbLine
10
0
20
-230
30
0
11
0
21
-200
31
0
0
CIRCLE
5
122
100
AcDbEntity
8
0
100
AcDbCircle
10
644.00019180091977
20
-219.99980819908032
30
0
40
3.249999999999976
210
0
220
0
230
1
0
CIRCLE
5
123
100
AcDbEntity
8
0
100
AcDbCircle
10
644.00019180091977
20
-471.00019180091977
30
0
40
3.2499999999999556
210
0
220
0
230
1
0
CIRCLE
5
124
100
AcDbEntity
8
0
100
AcDbCircle
10
644.00019180091977
20
-121.00019180091974
30
0
40
9.0000000000000462
210
0
220
0
230
1
0
CIRCLE
5
125
100
AcDbEntity
8
0
100
AcDbCircle
10
644.00019180091977
20
130.00019180091968
30
0
40
9.0000000000000036
210
0
220
0
230
1
0
CIRCLE
5
126
100
AcDbEntity
8
0
100
AcDbCircle
10
19.999808199080324
20
130.00019180091968
30
0
40
9.0000000000000036
210
0
220
0
230
1
0
CIRCLE
5
127
100
AcDbEntity
8
0
100
AcDbCircle
10
19.999808199080352
20
-121.00019180091974
30
0
40
9.0000000000000036
210
0
220
0
230
1
0
CIRCLE
5
128
100
AcDbEntity
8
0
100
AcDbCircle
10
19.999808199080324
20
-219.99980819908032
30
0
40
3.2499999999999929
210
0
220
0
230
1
0
CIRCLE
5
129
100
AcDbEntity
8
0
100
AcDbCircle
10
19.999808199080352
20
-471.00019180091977
30
0
40
3.2500000000000284
210
0
220
0
230
1
0
LWPOLYLINE
5
130
100
AcDbEntity
8
0
100
AcDbPolyline
90
4
70
1
43
0.0
10
1357.4968057956587
20
-1645.2647131231195
10
1066.4968057956585
20
-1645.2647131231195
10
1066.4968057956585
20
-1712.2647131231192
10
1357.4968057956587
20
-1712.2647131231192
0
LWPOLYLINE
5
131
100
AcDbEntity
8
0
100
AcDbPolyline
90
4
70
1
43
0.0
10
1007.4968057956587
20
-1645.2647131231195
10
716.49680579565847
20
-1645.2647131231195
10
716.49680579565847
20
-1712.2647131231192
10
1007.4968057956587
20
-1712.2647131231192
0
LWPOLYLINE
5
132
100
AcDbEntity
8
0
100
AcDbPolyline
90
4
70
1
43
0.0
10
1357.4968057956587
20
-845.26471312311946
10
1066.4968057956585
20
-845.26471312311946
10
1066.4968057956585
20
-912.26471312311946
10
1357.4968057956587
20
-912.26471312311946
0
LWPOLYLINE
5
133
100
AcDbEntity
8
0
100
AcDbPolyline
90
4
70
1
43
0.0
10
1007.4968057956587
20
-845.26471312311946
10
716.49680579565847
20
-845.26471312311946
10
716.49680579565847
20
-912.26471312311946
10
1007.4968057956587
20
-912.26471312311946
0
LWPOLYLINE
5
134
100
AcDbEntity
8
0
100
AcDbPolyline
90
4
70
1
43
0.0
10
1473.0942757990908
20
-1345.4329648947216
10
1406.0942757990911
20
-1345.4329648947216
10
1406.0942757990911
20
-1627.4329648947216
10
1473.0942757990908
20
-1627.4329648947216
0
LWPOLYLINE
5
135
100
AcDbEntity
8
0
100
AcDbPolyline
90
4
70
1
43
0.0
10
1506.0942757990911
20
-1627.4329648947216
10
1573.0942757990908
20
-1627.4329648947216
10
1573.0942757990908
20
-1345.4329648947216
10
1506.0942757990911
20
-1345.4329648947216
0
LWPOLYLINE
5
136
100
AcDbEntity
8
0
100
AcDbPolyline
90
4
70
1
43
0.0
10
1506.0942757990911
20
-995.43296489472164
10
1506.0942757990911
20
-1277.4329648947216
10
1573.0942757990908
20
-1277.4329648947216
10
1573.0942757990908
20
-995.43296489472164
0
LWPOLYLINE
5
137
100
AcDbEntity
8
0
100
AcDbPolyline
90
4
70
1
43
0.0
10
1406.0942757990911
20
-995.43296489472164
10
1406.0942757990911
20
-1277.4329648947216
10
1473.0942757990908
20
-1277.4329648947216
10
1473.0942757990908
20
-995.43296489472164
0
LWPOLYLINE
5
138
100
AcDbEntity
8
0
100
AcDbPolyline
90
6
70
1
43
0.0
10
716.49680579565847
20
-1278.4329648947219
10
725.49680579565859
20
-1278.4329648947219
10
998.4968057956587
20
-1278.4329648947219
10
1007.4968057956587
20
-1278.4329648947219
10
1007.4968057956587
20
-978.43296489472186
10
716.49680579565847
20
-978.43296489472186
0
LWPOLYLINE
5
139
100
AcDbEntity
8
0
100
AcDbPolyline
90
8
70
1
43
0.0
10
1691.5008716112573
20
-1565.9591500509459
42
-0.41421356237308948
10
1661.5008716112573
20
-1535.9591500509459
10
1661.5008716112573
20
-1355.9591500509459
42
-0.41421356237308948
10
1691.5008716112573
20
-1325.9591500509459
10
1871.5008716112573
20
-1325.9591500509459
42
-0.41421356237308948
10
1901.5008716112573
20
-1355.9591500509459
10
1901.5008716112573
20
-1535.9591500509459
42
-0.41421356237308948
10
1871.5008716112573
20
-1565.9591500509459
0
CIRCLE
5
140
100
AcDbEntity
8
0
100
AcDbCircle
10
1656.000871611257
20
-1571.4591500509459
30
0
40
3.25
210
0
220
0
230
1
0
CIRCLE
5
141
100
AcDbEntity
8
0
100
AcDbCircle
10
1656.000871611257
20
-1320.4591500509457
30
0
40
3.25
210
0
220
0
230
1
0
LWPOLYLINE
5
142
100
AcDbEntity
8
0
100
AcDbPolyline
90
4
70
1
43
0.0
10
1636.000871611257
20
-1595.9591500509459
10
1636.000871611257
20
-1295.9591500509459
10
1927.0008716112575
20
-1295.9591500509459
10
1927.0008716112575
20
-1595.9591500509459
0
LWPOLYLINE
5
143
100
AcDbEntity
8
0
100
AcDbPolyline
90
8
70
1
43
0.0
10
2221.500871611257
20
-1325.9591500509459
42
-0.41421356237308948
10
2251.500871611257
20
-1355.9591500509459
10
2251.500871611257
20
-1535.9591500509459
42
-0.41421356237308948
10
2221.500871611257
20
-1565.9591500509459
10
2041.5008716112573
20
-1565.9591500509459
42
-0.41421356237308948
10
2011.5008716112573
20
-1535.9591500509459
10
2011.5008716112573
20
-1355.9591500509459
42
-0.41421356237308948
10
2041.5008716112573
20
-1325.9591500509459
0
CIRCLE
5
144
100
AcDbEntity
8
0
100
AcDbCircle
10
2257.0008716112575
20
-1571.4591500509459
30
0
40
10
210
0
220
0
230
1
0
CIRCLE
5
145
100
AcDbEntity
8
0
100
AcDbCircle
10
2257.0008716112575
20
-1320.4591500509457
30
0
40
10
210
0
220
0
230
1
0
CIRCLE
5
146
100
AcDbEntity
8
0
100
AcDbCircle
10
2006.000871611257
20
-1571.4591500509459
30
0
40
10
210
0
220
0
230
1
0
CIRCLE
5
147
100
AcDbEntity
8
0
100
AcDbCircle
10
2006.000871611257
20
-1320.4591500509457
30
0
40
10
210
0
220
0
230
1
0
LWPOLYLINE
5
148
100
AcDbEntity
8
0
100
AcDbPolyline
90
4
70
1
43
0.0
10
2277.0008716112575
20
-1595.9591500509459
10
2277.0008716112575
20
-1295.9591500509459
10
1986.000871611257
20
-1295.9591500509459
10
1986.000871611257
20
-1595.9591500509459
0
CIRCLE
5
149
100
AcDbEntity
8
0
100
AcDbCircle
10
1907.0008716112575
20
-1320.4591500509457
30
0
40
3.25
210
0
220
0
230
1
0
CIRCLE
5
150
100
AcDbEntity
8
0
100
AcDbCircle
10
1907.0008716112575
20
-1571.4591500509459
30
0
40
3.2499999999998863
210
0
220
0
230
1
0
LWPOLYLINE
5
151
100
AcDbEntity
8
0
100
AcDbPolyline
90
4
70
1
43
0.0
10
1636.000871611257
20
-1245.9591500509459
10
1927.0008716112575
20
-1245.9591500509459
10
1927.0008716112575
20
-945.95915005094582
10
1636.000871611257
20
-945.95915005094582
0
LWPOLYLINE
5
152
100
AcDbEntity
8
0
100
AcDbPolyline
90
8
70
1
43
0.0
10
1661.5008716112573
20
-1185.9591500509459
10
1661.5008716112573
20
-1005.9591500509458
42
-0.41421356237308948
10
1691.5008716112573
20
-975.95915005094582
10
1871.5008716112573
20
-975.95915005094582
42
-0.41421356237308948
10
1901.5008716112573
20
-1005.9591500509458
10
1901.5008716112573
20
-1185.9591500509459
42
-0.41421356237308948
10
1871.5008716112573
20
-1215.9591500509459
10
1691.5008716112573
20
-1215.9591500509459
42
-0.41421356237308948
0
CIRCLE
5
153
100
AcDbEntity
8
0
100
AcDbCircle
10
1907.0008716112575
20
-1221.4591500509459
30
0
40
3.2499999999998863
210
0
220
0
230
1
0
CIRCLE
5
154
100
AcDbEntity
8
0
100
AcDbCircle
10
1656.000871611257
20
-970.45915005094571
30
0
40
3.25
210
0
220
0
230
1
0
CIRCLE
5
155
100
AcDbEntity
8
0
100
AcDbCircle
10
1907.0008716112575
20
-970.45915005094571
30
0
40
3.25
210
0
220
0
230
1
0
LWPOLYLINE
5
156
100
AcDbEntity
8
0
100
AcDbPolyline
90
4
70
1
43
0.0
10
2277.0008716112575
20
-1245.9591500509459
10
2277.0008716112575
20
-945.95915005094582
10
1986.000871611257
20
-945.95915005094582
10
1986.000871611257
20
-1245.9591500509459
0
LWPOLYLINE
5
157
100
AcDbEntity
8
0
100
AcDbPolyline
90
8
70
1
43
0.0
10
2221.500871611257
20
-1215.9591500509459
10
2041.5008716112573
20
-1215.9591500509459
42
-0.41421356237308948
10
2011.5008716112573
20
-1185.9591500509459
10
2011.5008716112573
20
-1005.9591500509458
42
-0.41421356237308948
10
2041.5008716112573
20
-975.95915005094582
10
2221.500871611257
20
-975.95915005094582
42
-0.41421356237308948
10
2251.500871611257
20
-1005.9591500509458
10
2251.500871611257
20
-1185.9591500509459
42
-0.41421356237308948
0
CIRCLE
5
158
100
AcDbEntity
8
0
100
AcDbCircle
10
1656.000871611257
20
-1221.4591500509459
30
0
40
3.25
210
0
220
0
230
1
0
CIRCLE
5
159
100
AcDbEntity
8
0
100
AcDbCircle
10
2257.0008716112575
20
-970.45915005094571
30
0
40
10
210
0
220
0
230
1
0
CIRCLE
5
160
100
AcDbEntity
8
0
100
AcDbCircle
10
2006.000871611257
20
-1221.4591500509459
30
0
40
10
210
0
220
0
230
1
0
CIRCLE
5
161
100
AcDbEntity
8
0
100
AcDbCircle
10
2257.0008716112575
20
-1221.4591500509459
30
0
40
10
210
0
220
0
230
1
0
CIRCLE
5
162
100
AcDbEntity
8
0
100
AcDbCircle
10
2006.000871611257
20
-970.45915005094571
30
0
40
10
210
0
220
0
230
1
0
LWPOLYLINE
5
163
100
AcDbEntity
8
0
100
AcDbPolyline
90
4
70
1
43
0.0
10
716.49680579565847
20
-1617.4329648947219
10
716.49680579565847
20
-1317.4329648947216
10
1007.4968057956587
20
-1317.4329648947216
10
1007.4968057956587
20
-1617.4329648947219
0
CIRCLE
5
164
100
AcDbEntity
8
0
100
AcDbCircle
10
801.99680453837323
20
-1386.9329661426941
30
0
40
12.5
210
0
220
0
230
1
0
CIRCLE
5
165
100
AcDbEntity
8
0
100
AcDbCircle
10
921.99680409133839
20
-1386.9329661426941
30
0
40
12.500000000000098
210
0
220
0
230
1
0
LINE
5
166
100
AcDbEntity
8
0
100
AcDbLine
10
716.49680579565847
20
-1521.9329648947219
30
0
11
716.49680579565847
21
-1617.4329648947219
31
0
0
CIRCLE
5
167
100
AcDbEntity
8
0
100
AcDbCircle
10
946.9968070622574
20
-1386.9329648947219
30
0
40
2.2360680108197992
210
0
220
0
230
1
0
CIRCLE
5
168
100
AcDbEntity
8
0
100
AcDbCircle
10
776.99680452906
20
-1386.9329648947219
30
0
40
2.2592133330360293
210
0
220
0
230
1
0
CIRCLE
5
169
100
AcDbEntity
8
0
100
AcDbCircle
10
861.9968057956587
20
-1416.9329653417567
30
0
40
2.2360680108197992
210
0
220
0
230
1
0
CIRCLE
5
170
100
AcDbEntity
8
0
100
AcDbCircle
10
861.9968057956587
20
-1356.932964447687
30
0
40
2.2360680108197992
210
0
220
0
230
1
0
CIRCLE
5
171
100
AcDbEntity
8
0
100
AcDbCircle
10
736.49680579565847
20
-1253.9329648947219
30
0
40
2.5000000000000129
210
0
220
0
230
1
0
CIRCLE
5
172
100
AcDbEntity
8
0
100
AcDbCircle
10
987.4968057956587
20
-1253.9329648947219
30
0
40
2.5000000000000129
210
0
220
0
230
1
0
CIRCLE
5
173
100
AcDbEntity
8
0
100
AcDbCircle
10
987.4968057956587
20
-1002.9329648947219
30
0
40
2.5
210
0
220
0
230
1
0
CIRCLE
5
174
100
AcDbEntity
8
0
100
AcDbCircle
10
1086.4968057956585
20
-1002.932964894722
30
0
40
2.4999999999999085
210
0
220
0
230
1
0
LWPOLYLINE
5
175
100
AcDbEntity
8
0
100
AcDbPolyline
90
6
70
1
43
0.0
10
1066.4968057956585
20
-1278.4329648947221
10
1066.4968057956585
20
-978.43296489472198
10
1357.4968057956587
20
-978.43296489472198
10
1357.4968057956587
20
-1278.4329648947221
10
1348.4968057956587
20
-1278.4329648947221
10
1075.4968057956585
20
-1278.4329648947221
0
CIRCLE
5
176
100
AcDbEntity
8
0
100
AcDbCircle
10
1086.4968057956585
20
-1253.9329648947221
30
0
40
2.5000000000000129
210
0
220
0
230
1
0
CIRCLE
5
177
100
AcDbEntity
8
0
100
AcDbCircle
10
1337.4968057956587
20
-1253.9329648947221
30
0
40
2.5000000000000129
210
0
220
0
230
1
0
CIRCLE
5
178
100
AcDbEntity
8
0
100
AcDbCircle
10
1337.4968057956587
20
-1002.932964894722
30
0
40
2.5
210
0
220
0
230
1
0
CIRCLE
5
179
100
AcDbEntity
8
0
100
AcDbCircle
10
456.32981609670168
20
-1576.2078986442648
30
0
40
4.000000000000032
210
0
220
0
230
1
0
CIRCLE
5
180
100
AcDbEntity
8
0
100
AcDbCircle
10
547.32981609670173
20
-1605.2078986442646
30
0
40
3.9999999999999858
210
0
220
0
230
1
0
CIRCLE
5
181
100
AcDbEntity
8
0
100
AcDbCircle
10
592.82981609670173
20
-1590.7078986442648
30
0
40
4.0000000000000071
210
0
220
0
230
1
0
CIRCLE
5
182
100
AcDbEntity
8
0
100
AcDbCircle
10
547.32981609670173
20
-1576.2078986442648
30
0
40
3.9999999999999858
210
0
220
0
230
1
0
CIRCLE
5
183
100
AcDbEntity
8
0
100
AcDbCircle
10
410.82981609670173
20
-1590.7078986442648
30
0
40
3.9999999999999836
210
0
220
0
230
1
0
CIRCLE
5
184
100
AcDbEntity
8
0
100
AcDbCircle
10
501.82981609670162
20
-1590.7078986442648
30
0
40
4.0000000000000036
210
0
220
0
230
1
0
CIRCLE
5
185
100
AcDbEntity
8
0
100
AcDbCircle
10
456.32981609670168
20
-1605.2078986442646
30
0
40
4.0000000000000036
210
0
220
0
230
1
0
LWPOLYLINE
5
186
100
AcDbEntity
8
0
100
AcDbPolyline
90
8
70
1
43
0.0
10
481.22981609670171
20
-1571.2078986442648
10
521.82981609670173
20
-1571.2078986442648
42
-0.41421356237310336
10
524.32981609670173
20
-1573.7078986442648
10
524.32981609670173
20
-1578.7078986442648
42
-0.41421356237309503
10
521.82981609670173
20
-1581.2078986442648
10
481.82981609670162
20
-1581.2078986442648
42
-0.41421356237309503
10
479.32981609670173
20
-1578.7078986442648
10
479.32981609670173
20
-1573.1078986442649
42
-0.41421356237309503
0
LWPOLYLINE
5
187
100
AcDbEntity
8
0
100
AcDbPolyline
90
4
70
1
43
0.0
10
638.32981609670173
20
-1554.207898644265
10
365.32981609670173
20
-1554.207898644265
10
365.32981609670173
20
-1627.207898644265
10
638.32981609670173
20
-1627.207898644265
0
LWPOLYLINE
5
188
100
AcDbEntity
8
0
100
AcDbPolyline
90
8
70
1
43
0.0
10
881.9968057956587
20
-1543.4329648947221
42
-0.41421356237311169
10
884.4968057956587
20
-1545.9329648947219
10
884.49680579565882
20
-1550.9329648947219
42
-0.41421356237309503
10
881.99680579565882
20
-1553.4329648947219
10
841.9968057956587
20
-1553.4329648947219
42
-0.41421356237309503
10
839.4968057956587
20
-1550.9329648947219
10
839.4968057956587
20
-1545.3329648947217
42
-0.41421356237309503
10
841.39680579565857
20
-1543.4329648947219
0
CIRCLE
5
189
100
AcDbEntity
8
0
100
AcDbCircle
10
816.4968057956587
20
-1577.4329648947216
30
0
40
4.0000000000000036
210
0
220
0
230
1
0
CIRCLE
5
190
100
AcDbEntity
8
0
100
AcDbCircle
10
861.9968057956587
20
-1562.9329648947216
30
0
40
4.0000000000000036
210
0
220
0
230
1
0
CIRCLE
5
191
100
AcDbEntity
8
0
100
AcDbCircle
10
816.4968057956587
20
-1548.4329648947219
30
0
40
4.000000000000032
210
0
220
0
230
1
0
CIRCLE
5
192
100
AcDbEntity
8
0
100
AcDbCircle
10
770.9968057956587
20
-1562.9329648947216
30
0
40
3.9999999999999836
210
0
220
0
230
1
0
CIRCLE
5
193
100
AcDbEntity
8
0
100
AcDbCircle
10
952.9968057956587
20
-1562.9329648947216
30
0
40
4.0000000000000071
210
0
220
0
230
1
0
CIRCLE
5
194
100
AcDbEntity
8
0
100
AcDbCircle
10
907.4968057956587
20
-1577.4329648947216
30
0
40
3.9999999999999858
210
0
220
0
230
1
0
CIRCLE
5
195
100
AcDbEntity
8
0
100
AcDbCircle
10
907.4968057956587
20
-1548.4329648947219
30
0
40
3.9999999999999858
210
0
220
0
230
1
0
CIRCLE
5
196
100
AcDbEntity
8
0
100
AcDbCircle
10
1302.9968057956585
20
-1562.9329648947216
30
0
40
4.0000000000000071
210
0
220
0
230
1
0
CIRCLE
5
197
100
AcDbEntity
8
0
100
AcDbCircle
10
1257.4968057956587
20
-1548.4329648947219
30
0
40
3.9999999999999858
210
0
220
0
230
1
0
LWPOLYLINE
5
198
100
AcDbEntity
8
0
100
AcDbPolyline
90
8
70
1
43
0.0
10
1234.4968057956587
20
-1550.9329648947219
42
-0.41421356237309503
10
1231.9968057956587
20
-1553.4329648947219
10
1191.9968057956587
20
-1553.4329648947219
42
-0.41421356237309503
10
1189.4968057956587
20
-1550.9329648947219
10
1189.4968057956587
20
-1545.3329648947217
42
-0.41421356237309503
10
1191.3968057956586
20
-1543.4329648947219
10
1231.9968057956587
20
-1543.4329648947221
42
-0.41421356237311169
10
1234.4968057956587
20
-1545.9329648947219
0
CIRCLE
5
199
100
AcDbEntity
8
0
100
AcDbCircle
10
1211.9968057956587
20
-1562.9329648947216
30
0
40
4.0000000000000036
210
0
220
0
230
1
0
CIRCLE
5
200
100
AcDbEntity
8
0
100
AcDbCircle
10
1257.4968057956587
20
-1577.4329648947216
30
0
40
3.9999999999999858
210
0
220
0
230
1
0
LWPOLYLINE
5
201
100
AcDbEntity
8
0
100
AcDbPolyline
90
4
70
1
43
0.0
10
1357.4968057956587
20
-1617.4329648947219
10
1357.4968057956587
20
-1317.4329648947216
10
1066.4968057956585
20
-1317.4329648947216
10
1066.4968057956585
20
-1617.4329648947219
0
CIRCLE
5
202
100
AcDbEntity
8
0
100
AcDbCircle
10
1120.9968057956587
20
-1562.9329648947216
30
0
40
3.9999999999999836
210
0
220
0
230
1
0
CIRCLE
5
203
100
AcDbEntity
8
0
100
AcDbCircle
10
1211.9968057956587
20
-1356.932964447687
30
0
40
2.2360680108197992
210
0
220
0
230
1
0
CIRCLE
5
204
100
AcDbEntity
8
0
100
AcDbCircle
10
1166.4968057956587
20
-1548.4329648947219
30
0
40
4.000000000000032
210
0
220
0
230
1
0
CIRCLE
5
205
100
AcDbEntity
8
0
100
AcDbCircle
10
1166.4968057956587
20
-1577.4329648947216
30
0
40
4.0000000000000036
210
0
220
0
230
1
0
CIRCLE
5
206
100
AcDbEntity
8
0
100
AcDbCircle
10
1211.9968057956587
20
-1416.9329653417567
30
0
40
2.2360680108197992
210
0
220
0
230
1
0
CIRCLE
5
207
100
AcDbEntity
8
0
100
AcDbCircle
10
1126.99680452906
20
-1386.9329648947219
30
0
40
2.2592133330360293
210
0
220
0
230
1
0
CIRCLE
5
208
100
AcDbEntity
8
0
100
AcDbCircle
10
1151.9968045383732
20
-1386.9329661426941
30
0
40
12.5
210
0
220
0
230
1
0
LINE
5
209
100
AcDbEntity
8
0
100
AcDbLine
10
1066.4968057956585
20
-1521.9329648947219
30
0
11
1066.4968057956585
21
-1617.4329648947219
31
0
0
CIRCLE
5
210
100
AcDbEntity
8
0
100
AcDbCircle
10
1296.9968070622574
20
-1386.9329648947219
30
0
40
2.2360680108197992
210
0
220
0
230
1
0
CIRCLE
5
211
100
AcDbEntity
8
0
100
AcDbCircle
10
1271.9968040913384
20
-1386.9329661426941
30
0
40
12.500000000000098
210
0
220
0
230
1
0
LWPOLYLINE
5
212
100
AcDbEntity
8
0
100
AcDbPolyline
90
8
70
1
43
0.0
10
161.82981609670179
20
-1581.2078986442648
10
121.82981609670165
20
-1581.2078986442648
42
-0.41421356237309503
10
119.32981609670172
20
-1578.7078986442648
10
119.32981609670172
20
-1573.1078986442649
42
-0.41421356237309503
10
121.2298160967017
20
-1571.2078986442648
10
161.82981609670173
20
-1571.2078986442648
42
-0.41421356237310336
10
164.32981609670173
20
-1573.7078986442648
10
164.32981609670179
20
-1578.7078986442648
42
-0.41421356237309503
0
LWPOLYLINE
5
213
100
AcDbEntity
8
0
100
AcDbPolyline
90
4
70
1
43
0.0
10
278.32981609670173
20
-1627.207898644265
10
278.32981609670173
20
-1554.207898644265
10
5.3298160967017338
20
-1554.207898644265
10
5.3298160967017338
20
-1627.207898644265
0
CIRCLE
5
214
100
AcDbEntity
8
0
100
AcDbCircle
10
187.32981609670176
20
-1576.2078986442648
30
0
40
3.9999999999999858
210
0
220
0
230
1
0
CIRCLE
5
215
100
AcDbEntity
8
0
100
AcDbCircle
10
187.32981609670176
20
-1605.2078986442646
30
0
40
3.9999999999999858
210
0
220
0
230
1
0
CIRCLE
5
216
100
AcDbEntity
8
0
100
AcDbCircle
10
141.82981609670165
20
-1590.7078986442648
30
0
40
4.0000000000000036
210
0
220
0
230
1
0
CIRCLE
5
217
100
AcDbEntity
8
0
100
AcDbCircle
10
96.329816096701677
20
-1576.2078986442648
30
0
40
4.000000000000032
210
0
220
0
230
1
0
CIRCLE
5
218
100
AcDbEntity
8
0
100
AcDbCircle
10
232.82981609670173
20
-1590.7078986442648
30
0
40
4.0000000000000071
210
0
220
0
230
1
0
CIRCLE
5
219
100
AcDbEntity
8
0
100
AcDbCircle
10
50.829816096701705
20
-1590.7078986442648
30
0
40
3.9999999999999836
210
0
220
0
230
1
0
CIRCLE
5
220
100
AcDbEntity
8
0
100
AcDbCircle
10
96.329816096701677
20
-1605.2078986442646
30
0
40
4.0000000000000036
210
0
220
0
230
1
0
LWPOLYLINE
5
221
100
AcDbEntity
8
0
100
AcDbPolyline
90
4
70
1
43
0.0
10
109.18976200000002
20
-635.69750799999997
10
138.189762
20
-635.69750799999997
10
138.189762
20
-606.69750799999997
10
109.18976200000002
20
-606.69750799999997
0
LWPOLYLINE
5
222
100
AcDbEntity
8
0
100
AcDbPolyline
90
4
70
1
43
0.0
10
554.81023800000003
20
-635.69750799999997
10
525.81023800000003
20
-635.69750799999997
10
525.81023800000003
20
-606.69750799999997
10
554.81023800000003
20
-606.69750799999997
0
LWPOLYLINE
5
223
100
AcDbEntity
8
0
100
AcDbPolyline
90
4
70
1
43
0.0
10
554.81023799999991
20
-956.69750799999997
10
554.81023799999991
20
-985.69750800000008
10
525.81023800000003
20
-985.69750800000008
10
525.81023800000003
20
-956.69750799999997
0
LWPOLYLINE
5
224
100
AcDbEntity
8
0
100
AcDbPolyline
90
4
70
1
43
0.0
10
109.18976200000004
20
-956.69750799999997
10
109.18976200000004
20
-985.69750799999997
10
138.189762
20
-985.69750799999997
10
138.189762
20
-956.69750799999997
0
LWPOLYLINE
5
225
100
AcDbEntity
8
0
100
AcDbPolyline
90
4
70
1
43
0.0
10
664
20
-1216
10
664
20
-925
10
0
20
-925
10
0
20
-1216
0
LWPOLYLINE
5
226
100
AcDbEntity
8
0
100
AcDbPolyline
90
4
70
1
43
0.0
10
289
20
-1006.733579
42
-0.99999999999999989
10
289
20
-992.73357899999996
10
375.00000000000006
20
-992.73357899999996
42
-0.99999999999999989
10
375.00000000000006
20
-1006.733579
0
ARC
5
227
100
AcDbEntity
8
0
100
AcDbCircle
10
375.00000000000006
20
-999.73357899999996
30
0
40
7.0000000000000284
210
0
220
0
230
1
100
AcDbArc
50
-90
51
90
0
CIRCLE
5
228
100
AcDbEntity
8
0
100
AcDbCircle
10
644
20
254.00000000000006
30
0
40
2.5
210
0
220
0
230
1
0
CIRCLE
5
229
100
AcDbEntity
8
0
100
AcDbCircle
10
644
20
505
30
0
40
2.4999999999999996
210
0
220
0
230
1
0
LWPOLYLINE
5
230
100
AcDbEntity
8
0
100
AcDbPolyline
90
4
70
1
43
0.0
10
664
20
234.00000000000006
10
664
20
525
10
0
20
525
10
0
20
234.00000000000006
0
CIRCLE
5
231
100
AcDbEntity
8
0
100
AcDbCircle
10
20
20
254.00000000000006
30
0
40
2.5
210
0
220
0
230
1
0
CIRCLE
5
232
100
AcDbEntity
8
0
100
AcDbCircle
10
20
20
505
30
0
40
2.4999999999999902
210
0
220
0
230
1
0
LWPOLYLINE
5
233
100
AcDbEntity
8
0
100
AcDbPolyline
90
4
70
1
43
0.0
10
151.50000000000003
20
-1312
10
180.5
20
-1312
10
180.5
20
-1283
10
151.50000000000003
20
-1283
0
LWPOLYLINE
5
234
100
AcDbEntity
8
0
100
AcDbPolyline
90
4
70
1
43
0.0
10
306.25000000000006
20
-1303.75
10
318.75000000000006
20
-1303.75
10
318.75000000000006
20
-1291.25
10
306.25000000000006
20
-1291.25
0
LWPOLYLINE
5
235
100
AcDbEntity
8
0
100
AcDbPolyline
90
4
70
1
43
0.0
10
512.5
20
-1312
10
483.50000000000011
20
-1312
10
483.50000000000011
20
-1283
10
512.5
20
-1283
0
LWPOLYLINE
5
236
100
AcDbEntity
8
0
100
AcDbPolyline
90
4
70
1
43
0.0
10
357.75000000000006
20
-1291.25
10
357.75000000000006
20
-1303.75
10
345.25000000000006
20
-1303.75
10
345.25000000000006
20
-1291.25
0
LWPOLYLINE
5
237
100
AcDbEntity
8
0
100
AcDbPolyline
90
4
70
1
43
0.0
10
78.914994799999988
20
-748.07934400000386
10
136.91499479999999
20
-748.07934400000386
10
136.91499479999999
20
-690.07934400000386
10
78.914994799999988
20
-690.07934400000386
0
LWPOLYLINE
5
238
100
AcDbEntity
8
0
100
AcDbPolyline
90
4
70
1
43
0.0
10
151.80813880000102
20
-748.07934400000386
10
209.80813880000107
20
-748.07934400000386
10
209.80813880000107
20
-690.07934400000386
10
151.80813880000102
20
-690.07934400000386
0
LWPOLYLINE
5
239
100
AcDbEntity
8
0
100
AcDbPolyline
90
4
70
1
43
0.0
10
224.70128280000225
20
-748.07934400000386
10
282.70128280000222
20
-748.07934400000386
10
282.70128280000222
20
-690.07934400000386
10
224.70128280000225
20
-690.07934400000386
0
LWPOLYLINE
5
240
100
AcDbEntity
8
0
100
AcDbPolyline
90
4
70
1
43
0.0
10
454.19186119999898
20
-690.07934400000386
10
512.19186119999904
20
-690.07934400000386
10
512.19186119999904
20
-748.07934400000386
10
454.19186119999898
20
-748.07934400000386
0
LWPOLYLINE
5
241
100
AcDbEntity
8
0
100
AcDbPolyline
90
4
70
1
43
0.0
10
585.08500520000007
20
-748.07934400000386
10
527.08500520000007
20
-748.07934400000386
10
527.08500520000007
20
-690.07934400000386
10
585.08500520000007
20
-690.07934400000386
0
LWPOLYLINE
5
242
100
AcDbEntity
8
0
100
AcDbPolyline
90
4
70
1
43
0.0
10
381.29871719999784
20
-748.07934400000386
10
381.29871719999784
20
-690.07934400000386
10
439.29871719999778
20
-690.07934400000386
10
439.29871719999778
20
-748.07934400000386
0
LWPOLYLINE
5
243
100
AcDbEntity
8
0
100
AcDbPolyline
90
4
70
1
43
0.0
10
152.55813880000119
20
-1040.8293440000039
10
152.55813880000119
20
-1098.8293440000039
10
210.55813880000096
20
-1098.8293440000039
10
210.55813880000096
20
-1040.8293440000039
0
LWPOLYLINE
5
244
100
AcDbEntity
8
0
100
AcDbPolyline
90
4
70
1
43
0.0
10
79.664994800000088
20
-1040.8293440000039
10
79.664994800000088
20
-1098.8293440000039
10
137.66499479999987
20
-1098.8293440000039
10
137.66499479999987
20
-1040.8293440000039
0
LWPOLYLINE
5
245
100
AcDbEntity
8
0
100
AcDbPolyline
90
4
70
1
43
0.0
10
225.45128280000242
20
-1040.8293440000039
10
225.45128280000242
20
-1098.8293440000039
10
283.4512828000021
20
-1098.8293440000039
10
283.4512828000021
20
-1040.8293440000039
0
LWPOLYLINE
5
246
100
AcDbEntity
8
0
100
AcDbPolyline
90
4
70
1
43
0.0
10
584.33500519999996
20
-1098.8293440000039
10
526.33500520000018
20
-1098.8293440000039
10
526.33500520000018
20
-1040.8293440000039
10
584.33500519999996
20
-1040.8293440000039
0
LWPOLYLINE
5
247
100
AcDbEntity
8
0
100
AcDbPolyline
90
4
70
1
43
0.0
10
380.54871719999795
20
-1098.8293440000039
10
380.54871719999795
20
-1040.8293440000039
10
438.54871719999767
20
-1040.8293440000039
10
438.54871719999767
20
-1098.8293440000039
0
LWPOLYLINE
5
248
100
AcDbEntity
8
0
100
AcDbPolyline
90
4
70
1
43
0.0
10
453.4418611999991
20
-1098.8293440000039
10
453.4418611999991
20
-1040.8293440000039
10
511.44186119999887
20
-1040.8293440000039
10
511.44186119999887
20
-1098.8293440000039
0
CIRCLE
5
249
100
AcDbEntity
8
0
100
AcDbCircle
10
736.49680579565847
20
-1002.9329648947219
30
0
40
2.6000000000000001
210
0
220
0
230
1
0
ENDSEC
0
SECTION
2
OBJECTS
0
DICTIONARY
5
C
100
AcDbDictionary
3
ACAD_GROUP
350
D
3
ACAD_MLINESTYLE
350
17
0
DICTIONARY
5
D
100
AcDbDictionary
0
DICTIONARY
5
1A
330
C
100
AcDbDictionary
0
DICTIONARY
5
17
100
AcDbDictionary
0
ENDSEC
0
EOF
